<?xml version="1.0" standalone="no"?>
<!DOCTYPE svg PUBLIC "-//W3C//DTD SVG 1.1//EN" "http://www.w3.org/Graphics/SVG/1.1/DTD/svg11.dtd" >
<!--
2013-9-30: Created.
-->
<svg>
<metadata>
Created by iconfont
</metadata>
<defs>

<font id="iconfont" horiz-adv-x="1024" >
  <font-face
    font-family="iconfont"
    font-weight="500"
    font-stretch="normal"
    units-per-em="1024"
    ascent="896"
    descent="-128"
  />
    <missing-glyph />
    
    <glyph glyph-name="weixiu" unicode="&#58916;" d="M941.056 23.552c-20.48 12.288-43.008 13.312-64.512 6.144l-135.168 79.872c2.048 16.384 12.288 30.72 28.672 36.864 24.576 10.24 29.696 33.792 11.264 52.224-18.432 19.456-16.384 49.152 3.072 66.56 20.48 17.408 17.408 40.96-6.144 53.248-23.552 12.288-31.744 40.96-18.432 63.488 13.312 22.528 3.072 45.056-23.552 48.128-26.624 4.096-43.008 28.672-37.888 54.272s-11.264 43.008-37.888 37.888-50.176 12.288-53.248 38.912C604.16 588.8 582.656 599.04 560.128 586.752c-22.528-13.312-51.2-4.096-63.488 19.456-11.264 23.552-35.84 26.624-53.248 7.168-17.408-19.456-47.104-20.48-66.56-2.048-18.432 18.432-43.008 13.312-52.224-10.24-10.24-24.576-37.888-34.816-61.44-23.552-23.552 11.264-45.056-1.024-46.08-26.624-2.048-26.624-24.576-45.056-51.2-41.984-26.624 3.072-41.984-15.36-34.816-40.96 7.168-25.6-8.192-51.2-33.792-56.32-25.6-5.12-34.816-27.648-19.456-50.176 15.36-21.504 8.192-51.2-14.336-64.512-22.528-13.312-23.552-37.888-2.048-53.248 21.504-15.36 24.576-45.056 7.168-65.536-17.408-20.48-10.24-44.032 15.36-51.2 25.6-8.192 37.888-34.816 28.672-59.392-9.216-24.576 4.096-45.056 30.72-44.032 26.624 1.024 47.104-20.48 46.08-47.104-1.024-26.624 18.432-40.96 43.008-31.744 24.576 9.216 51.2-4.096 59.392-29.696 8.192-25.6 30.72-32.768 51.2-15.36 20.48 16.384 50.176 12.288 65.536-8.192 15.36-21.504 39.936-20.48 53.248 2.048 14.336 22.528 43.008 28.672 64.512 13.312 21.504-15.36 44.032-6.144 50.176 19.456 6.144 25.6 31.744 40.96 57.344 33.792 25.6-7.168 44.032 8.192 40.96 34.816-1.024 13.312 3.072 25.6 11.264 34.816l139.264-81.92c4.096-21.504 16.384-40.96 36.864-53.248 36.864-21.504 84.992-9.216 106.496 27.648C990.208-46.08 977.92 2.048 941.056 23.552zM626.688 178.176l-100.352 59.392c-1.024 32.768-17.408 63.488-47.104 80.896-32.768 19.456-71.68 16.384-101.376-2.048l55.296-32.768c19.456-11.264 25.6-37.888 13.312-58.368-12.288-20.48-37.888-27.648-57.344-16.384l-55.296 32.768c-2.048-35.84 14.336-70.656 47.104-90.112 29.696-17.408 65.536-17.408 94.208-2.048l97.28-57.344c-26.624-24.576-58.368-44.032-96.256-53.248-116.736-29.696-235.52 40.96-265.216 156.672-29.696 116.736 40.96 235.52 156.672 265.216s235.52-40.96 266.24-156.672C643.072 262.144 641.024 218.112 626.688 178.176zM674.816 149.504l-20.48 12.288c17.408 47.104 22.528 99.328 8.192 151.552-34.816 134.144-171.008 215.04-305.152 180.224C224.256 459.776 143.36 322.56 178.176 188.416c34.816-134.144 171.008-215.04 305.152-180.224 46.08 12.288 86.016 35.84 116.736 67.584l20.48-12.288c-34.816-36.864-78.848-64.512-132.096-77.824C342.016-52.224 193.536 35.84 155.648 182.272c-37.888 146.432 50.176 295.936 196.608 333.824C498.688 553.984 648.192 465.92 686.08 318.464 701.44 260.096 696.32 201.728 674.816 149.504zM936.96-64.512l-35.84-20.48-34.816 20.48 0 40.96 35.84 20.48 34.816-20.48L936.96-64.512zM601.088 668.672l18.432-11.264c15.36-9.216 27.648-31.744 28.672-50.176l1.024-21.504c1.024-17.408 15.36-29.696 32.768-25.6l20.48 5.12c17.408 4.096 41.984-3.072 55.296-15.36l15.36-14.336c13.312-12.288 31.744-10.24 40.96 5.12l11.264 18.432c9.216 15.36 31.744 27.648 50.176 28.672l21.504 1.024c17.408 1.024 28.672 15.36 25.6 32.768l-5.12 20.48c-4.096 17.408 3.072 41.984 15.36 55.296l14.336 15.36c12.288 13.312 10.24 31.744-5.12 40.96l-18.432 11.264c-15.36 9.216-27.648 31.744-28.672 50.176l-1.024 21.504c-1.024 17.408-15.36 29.696-32.768 25.6l-20.48-5.12C823.296 855.04 798.72 861.184 785.408 873.472l-15.36 14.336c-13.312 12.288-31.744 10.24-40.96-5.12L716.8 864.256c-9.216-15.36-31.744-27.648-50.176-28.672l-21.504-1.024c-17.408-1.024-29.696-15.36-25.6-32.768l5.12-20.48c4.096-17.408-3.072-41.984-15.36-55.296l-14.336-15.36C583.68 697.344 585.728 678.912 601.088 668.672zM772.096 800.768c49.152 0 88.064-39.936 88.064-88.064s-38.912-88.064-88.064-88.064c-49.152 0-88.064 39.936-88.064 88.064C684.032 760.832 722.944 800.768 772.096 800.768z"  horiz-adv-x="1024" />

    
    <glyph glyph-name="kehuliebiao" unicode="&#59116;" d="M719.277834 512.659265 304.722166 512.659265c-9.05626 0-16.397459-7.340175-16.397459-16.395412l0-287.951201c0-9.055237 7.341199-16.395412 16.397459-16.395412l414.555667 0c9.05626 0 16.397459 7.340175 16.397459 16.395412L735.675292 496.263853C735.675292 505.31909 728.334093 512.659265 719.277834 512.659265zM607.798856 223.767646c-0.094144 52.829206-42.947138 95.627964-95.798856 95.627964s-95.705736-42.798758-95.798856-95.627964l-32.111349 0c0.069585 51.913347 31.063483 96.577592 75.54865 116.562762-16.812921 14.633279-27.456329 36.173874-27.456329 60.213383 0 44.081984 35.735899 79.817883 79.817883 79.817883s79.817883-35.735899 79.817883-79.817883c0-24.039509-10.642384-45.580105-27.456329-60.213383 44.485167-19.98517 75.480088-64.649416 75.54865-116.562762L607.798856 223.767646zM512 400.543791m-48.596811 0a47.49 47.49 0 1 0 97.193623 0 47.49 47.49 0 1 0-97.193623 0ZM512 895.400343C229.561349 895.400343 0.599657 666.438651 0.599657 384s228.961692-511.400343 511.400343-511.400343 511.400343 228.961692 511.400343 511.400343S794.438651 895.400343 512 895.400343zM320.66323 666.254455c0 3.39533 2.7486 6.148024 6.138814 6.148024l370.394888 0c3.390213 0 6.138814-2.752694 6.138814-6.148024l0-20.151969c0-3.39533-2.7486-6.148024-6.138814-6.148024L326.802044 639.954463c-3.390213 0-6.138814 2.752694-6.138814 6.148024L320.66323 666.254455zM288.429085 601.444381c0 3.39533 2.7486 6.148024 6.138814 6.148024l434.863179 0c3.390213 0 6.138814-2.752694 6.138814-6.148024l0-20.151969c0-3.39533-2.7486-6.148024-6.138814-6.148024L294.567899 575.144388c-3.390213 0-6.138814 2.752694-6.138814 6.148024L288.429085 601.444381zM767.794827 192.083016c0-17.469883-14.172791-31.632441-31.654954-31.632441L287.860127 160.450575c-17.483186 0-31.654954 14.162558-31.654954 31.632441L256.205173 512.493489c0 17.469883 14.172791 31.632441 31.654954 31.632441l448.278723 0c17.483186 0 31.654954-14.162558 31.654954-31.632441L767.793804 192.083016z"  horiz-adv-x="1024" />

    
    <glyph glyph-name="fanhui" unicode="&#58902;" d="M942.370611 156.744192c-9.64608 0-18.099917 6.794752-20.044288 16.409702-0.273203 1.290342-13.681152 62.485094-70.839194 122.607411-72.793805 76.570931-185.439846 118.69225-326.665011 122.379264l0-166.336376c0-7.69321-4.313395-14.734541-11.165798-18.23017-6.851277-3.494605-15.086182-2.855014-21.314253 1.660826L99.968819 519.679181c-5.304013 3.844608-8.446669 9.996698-8.453837 16.54784-0.007168 6.550221 3.122278 12.709478 8.418099 16.565248L492.306227 838.536192c6.224998 4.532224 14.467072 5.189222 21.329613 1.696666 6.863565-3.491533 11.186176-10.540032 11.186176-18.24041l0-176.618557c25.276723-0.931226 69.372723-4.680602 120.492032-18.246554 81.366426-21.593805 148.922778-59.281101 200.796262-112.014131 79.828275-81.153331 119.105434-194.954138 116.740506-338.240512-0.17193-10.45719-8.202138-19.102106-18.617754-20.044493C943.608832 156.771738 942.985626 156.744192 942.370611 156.744192zM504.355123 459.33783c90.70039 0 171.124224-14.281216 239.035699-42.445722 55.036723-22.824858 102.001152-54.739763 139.585741-94.857421 12.340531-13.172019 22.843187-26.345062 31.769805-39.064678-13.623808 82.952294-46.350541 151.116698-97.818726 203.440435-110.771302 112.60969-274.788454 118.314701-306.541875 118.314701-3.38729 0-5.247693-0.06656-5.266125-0.06656-5.561856-0.198554-10.961101 1.862451-14.961357 5.719245-4.000256 3.857818-6.270054 9.174938-6.270054 14.731469L483.88823 781.769352 146.800333 536.286413l337.087795-244.365517L483.888128 438.871725C483.888128 450.174157 493.051187 459.33783 504.355123 459.33783z"  horiz-adv-x="1024" />

    
    <glyph glyph-name="chiruler12" unicode="&#58934;" d="M1377.78212308 878.64338038l-184.75687365 0c-33.57592651 0-33.57592651-27.09710811-33.57592651-45.63231225l0-78.64708233L1318.99661846 754.3639871c4.63380103 0 8.38335347-5.71360389 8.38335347-10.35590745 0-4.64230356-3.76655748-10.35590746-8.38335347-10.35590746L1159.44082038 733.65217219l0-41.42363111L1251.82775908 692.22854108c4.63380103 0 8.38335347-5.71360389 8.38335349-10.35590746 0-4.63380103-3.76655748-10.35590746-8.38335349-10.35590745L1159.44082038 671.51672617l0-41.42363111L1318.99661846 630.09309506c4.63380103 0 6.66587141-4.97389695 6.66587144-9.607698 0-4.64230356-2.03207038-11.10411822-6.66587144-11.10411821L1159.44082038 609.38128014l0-41.42363111L1251.82775908 567.95765033c4.63380103 0 8.38335347-5.71360389 8.38335349-10.35590746 0-4.64230356-3.76655748-10.35590746-8.38335349-10.35590746L1159.44082038 547.24583411l0-41.4236311L1318.99661846 505.8222043c4.63380103 0 8.38335347-5.71360389 8.38335347-10.35590746 0-4.63380103-3.76655748-10.35590746-8.38335347-10.35590745L1159.44082038 485.11038809l0-41.43213234L1251.82775908 443.67825575c4.63380103 0 8.38335347-5.71360389 8.38335349-10.35590745 0-4.64230356-3.76655748-10.35590746-8.38335349-10.35590747L1159.44082038 422.96644083l0-41.4236311L1318.99661846 381.54280973000004c4.63380103 0 8.38335347-5.71360389 8.38335347-10.36441 0-4.63380103-3.76655748-10.34740493-8.38335347-10.34740492L1159.44082038 360.83099481l0-41.43213235L1251.82775908 319.39886246000003c4.63380103 0 6.46181465-5.73060895 6.46181466-10.38141504 0-4.63380103-1.81951108-10.33039987-6.46181466-10.33039987L1159.44082038 298.68704626l0-41.43213235L1318.99661846 257.25491391c4.63380103 0 8.38335347-5.71360389 8.38335347-10.34740493 0-4.65080609-3.76655748-10.36440998-8.38335347-10.36440997L1159.44082038 236.54309901l0-41.42363113L1251.82775908 195.11946788c4.63380103 0 8.38335347-5.72210641 8.38335349-10.35590745 0-4.64230356-3.76655748-10.36440998-8.38335349-10.36440998L1159.44082038 174.39915044999998l0-41.42363111L1318.99661846 132.97551934c4.63380103 0 8.38335347-5.71360389 8.38335347-10.35590747s-3.76655748-10.36440998-8.38335347-10.36440997L1159.44082038 112.25520189999997l0-41.41512859L1251.82775908 70.84007459999998c4.63380103 0 8.38335347-5.72210641 8.38335349-10.36440998 0-4.63380103-3.76655748-10.35590746-8.38335349-10.35590746L1159.44082038 50.11975715999995l0-41.4236311L1318.99661846 8.696126059999983c4.63380103 0 8.38335347-5.71360389 8.38335347-10.36440999 0-4.63380103-3.76655748-10.34740493-8.38335347-10.34740492L1159.44082038-12.015688849999947l0-78.73210502c0-18.56921426 15.04072237-24.84397589 33.60143409-24.84397589l184.75687365 0c18.53520415 0 50.91229502 6.27476163 50.91229502 24.84397589L1428.71142314 833.01106813C1428.71142314 851.54627228 1428.71142314 878.64338038 1377.78212308 878.64338038zM949.05293277 763.38218621l18.58281727-19.63484674c6.99236389-7.00143188 5.34176615-18.33794862-1.64152701-25.33938189-7.00143188-7.00143188-17.73938037-7.00143188-24.749883 0l-20.7231523 20.72315231-57.66205689-52.89165094 49.9804325-49.98043252c7.00143188-7.00143188 7.00143188-18.33794862 0-25.3393819-7.00143188-7.00143188-18.33794862-7.00143188-25.33938189 0l-51.08687678 51.07780745-57.65298757-52.89165093 26.57279448-26.58186384c7.00143188-6.99236389 7.00143187-18.32887926 0-25.33938189-6.99236389-7.00143188-18.32887926-7.00143187-25.33938189 0l-27.67923876 27.67923875-57.67112627-52.89165094 56.93651898-56.92744959c7.00143188-7.00143188 7.00143187-18.32887926 0-25.34844987-7.00143188-6.99236389-18.33794862-6.99236389-25.33938191 0l-58.01575514 58.02482452-67.01241503-61.46205631 24.96754356-24.97661291c7.00143188-6.99236389 7.00143187-18.32887926 0-25.33031251-6.99236389-7.01050124-18.32887926-7.01050124-25.3393819 0l-26.04677974 26.03771037-67.02148438-61.4620563 64.65441943-64.63628072c7.00143188-7.00143188 7.00143188-18.33794862 0-25.34844986-7.00143188-6.99236389-18.33794862-6.99236389-25.34844988 0l-65.75179434 65.75179435-57.6620569-52.89165093 23.35322323-23.34415389c7.00143187-7.01050124 7.00143188-18.33794862 0-25.34844988-7.00143188-6.99236389-18.33794862-6.99236389-25.33938187 1e-8l-24.43245947 24.43245944-57.66205692-52.89165095 53.68974105-53.68067166c7.00143188-7.00143188 7.00143188-18.33794862 0-25.33938189-7.00143188-7.00143188-18.33794862-7.00143188-25.33938188 0l-54.79618531 54.79618532-67.01241502-61.4620563 21.72076561-21.72076561c7.00143188-7.00143188 7.00143188-18.33794862 0-25.33938188-7.00143188-7.00143188-18.33794862-7.00143188-25.33938189 0l-22.82720852 22.81814051-57.6620569-52.89165094 52.07542073-52.07542074c7.00143188-7.00143188 7.00143188-18.33794862 0-25.33938188-7.00143188-7.00143188-18.33794862-7.00143188-25.33938189 0l-53.15465692 48.6744664L15.9669505-98.41978170000004c-14.29307922-13.63102681-9.89451157-24.35083655 9.90358094-24.35083655l1021.16617847 0c19.77995379 0 26.29164837 15.39952349 26.29164837 35.197616l0 931.5714236c0 19.79809251-7.24630053 25.18520412-22.0563265 12.06205332L949.05293277 763.38218621zM940.76367212 9.80313726999998L390.29871776 9.80313726999998l550.46495436 534.55755346L940.76367212 9.80313726999998z"  horiz-adv-x="1490" />

    
    <glyph glyph-name="quanping" unicode="&#59302;" d="M218.688721 727.355045l-0.013303 0 0 0.014326L218.688721 727.355045l128.45665 0.556679c19.003819-0.508583 36.624129 13.658068 39.493479 37.807071L386.638851 791.80287c-0.474814 20.503986-16.169261 37.442774-35.158754 37.897122l-245.311055-1.561565c-0.37146 0.040932-0.605797 0.186242-0.935302 0.186242l-17.193591 0.412392c-9.494235 0.24764-18.012236-3.756557-24.087605-10.389628-6.151094-6.591115-8.428973-15.797801-8.18031-26.090215l1.843998-18.562774c0-0.37146-1.280156-0.61296-1.280156-1.025353l0.956791-265.449721c0.412392-20.454868 16.121166-32.736589 35.165918-33.190937l25.552979 0c19.003819-0.454348 34.092469 17.359366 33.665751 37.786605l-1.073448 144.370085 169.152515-179.211615c18.377556-19.84293 48.128137-19.84293 66.518996 0 18.329461 19.835767 18.329461 51.897997 0 71.755254L218.688721 727.355045zM948.293761-3.895471c-0.034792 0.460488 1.238201 0.722454 1.238201 1.073448l-0.014326 0.007163-0.977257 261.362636c-0.481977 20.441565-16.182564 32.67519-35.186384 33.128515l-24.163329 0.034792c-18.934235 0.467651-34.085306-17.385972-33.603329-37.849026l1.073448-141.253094L687.535899 292.983053c-18.405185 19.850094-48.106648 19.850094-66.49853 0-18.36323-19.835767-18.36323-51.897997 0-71.734788l169.104419-180.25027-128.297015-0.550539c-18.989493 0.454348-36.576033-12.115945-39.493479-36.273135l0-26.083052c0.481977-20.4958 16.237823-37.442774 35.17922-37.951357l242.160295 1.582031c0.391926 0 0.611937-0.164752 0.970094-0.164752l17.173125-0.454348c9.495258-0.240477 18.054191 3.76372 24.115234 10.417257 6.212492 6.529717 8.407484 15.763009 8.222265 26.062586L948.293761-3.895471zM386.225435 292.990217l-0.014326 0c-18.36323 19.84907-48.14144 19.84907-66.505693 0L150.561088 113.785765l1.086751 142.119835c0.413416 20.4958-14.675234 38.364773-33.610492 37.849026l-25.574469 0c-19.051915-0.509606-34.745339-12.68695-35.172057-33.183773l-0.99056-263.323291c0-0.37146 1.286296-0.61296 1.286296-1.025353l-1.843998-18.521842c-0.206708-10.299577 2.00875-19.540032 8.167007-26.062586 6.068206-6.653537 14.634302-10.657734 24.067138-10.416234l17.207917 0.454348c0.358157 0 0.578168 0.164752 0.970094 0.164752l245.290589-1.589195c18.989493 0.522909 34.71157 17.455557 35.172057 37.95852l0 26.076912c-2.862187 24.157189-20.482497 36.72032-39.438221 36.273135l-129.955794 0.454348 169.001065 180.24413C404.568199 241.029798 404.568199 273.154449 386.225435 292.990217zM941.984055 818.347432c-6.068206 6.632047-14.634302 10.637268-24.115234 10.354835l-17.152658-0.412392c-0.385786 0-0.61296-0.144286-0.99056-0.206708L654.063553 829.666222c-19.017122-0.474814-34.704406-17.414625-35.186384-37.910425l-0.048095-26.090215c2.917446-24.190959 20.565385-38.302351 39.486316-37.841863l130.368186-0.556679L621.181655 548.618245c-18.418488-19.75288-18.418488-51.815109-0.048095-71.6519l0-0.007163c18.377556-19.84293 48.093345-19.84293 66.491367 0l169.132048 180.327018-1.086751-145.471163c-0.461511-20.434401 14.696724-38.309514 33.617655-37.85619l24.163329 0c18.989493 0.522909 34.69008 12.756535 35.172057 33.197076l0.977257 265.512143c0 0.412392-1.258667 0.661056-1.258667 1.032516l1.851161 18.562774C950.391539 802.550655 948.183244 811.762457 941.984055 818.347432z"  horiz-adv-x="1024" />

    
    <glyph glyph-name="ditu" unicode="&#58914;" d="M92.3 14.2c0-34.9 28.5-63 63-63h713.4c34.9 0 63 28 63 63V534.1c0 34.9-28 63-63 63H695.4L665.1 512h171.5c7.8 0 13.3-5 13.3-12.9V386c-24.4 0.4-62.1-1.8-98.8-19.8l4.6-12.4 14.7-38.1c21.6 6.9 40.4 12 55.2 14.2l24.4 3.7v-287.3c0-7.8-5.5-12.8-13.3-12.8h-646c-7.8 0-13.3 5-13.3 12.8V221.9c3.7-3.7 7.9-7.7 12.9-11.9 7.9-6.8 19.8-17.9 34.9-30.8 8.7 7.8 16.9 18 23.9 25.3 4.1 4.2 7.8 8.3 11 12.4-36.3 30.3-73.1 73.1-82.7 85V499.1c0 7.4 5.5 12.9 13.3 12.9h92.9l-28 85.1H155.3c-34.5 0-63-28-63-63v-519.9zM272.5 141c12.9-9.7 26.5-18.1 40.9-25.7 25.6-13.5 58.4-28.9 95.6-34.5 1.4 11.1 2.1 25.4 3.7 35.9l2.8 18.4c-10.1 1.8-21.7 4.8-34 9.2-20.8 7.5-47.3 20.2-76.8 40.9-7.8-11.5-15.8-21.8-22.1-30.3L272.5 141z m32.7 505.7c0-17 2.3-33.6 7.4-49.6h-1.8c14.2-33.1 30.3-67.8 44.1-94.2l23-44.1c40.3-77.3 89.6-162.3 97-173.3 0.5-0.5 0.5-0.5 0.5-0.9 0-0.5 0-0.9 0.5-0.9 27.6 46.4 51.4 88.3 69.4 121.8l29 53.8 22.5 44.1c13.4 26.2 29.4 60.2 43.7 93.8h-1.4c5.1 16.1 7.4 32.6 7.4 49.6 0 93.8-76.8 170.1-170.5 170.1-94.5-0.1-170.8-76.4-170.8-170.2z m89.6 0c0 44.1 36.8 80.9 80.9 80.9 45.5 0 80.4-36.8 80.4-80.9 0-45.5-34.9-80.9-80.4-80.9-44.1 0-80.9 35.4-80.9 80.9z m64.8-508.4c5.1-12.4 7.8-24.8 11.5-34.5 1.4-6 2.8-11.5 4.6-16.6 16.5 5.1 33.1 10.2 49.2 17.1 27.5 11.6 60.2 28 80.9 49.6l-38.1 40.9c-6.9-6.9-15.1-12.5-25.7-19.3-18-11.5-43.8-25.7-82.4-37.2zM646.7 198c17.9 39.1 38.6 62.5 54.7 76.8 8.8 7.8 17.9 14.2 27.6 18.4-5.1 6.9-9 13-12.9 18.8-7.1 10.7-14.7 23-18.4 29-24.4-13.3-47.4-40.8-65.7-65.3-10.6-14.2-20.2-29.4-29.4-45.5l44.1-32.2z"  horiz-adv-x="1024" />

    
    <glyph glyph-name="panel" unicode="&#58948;" d="M960 282.6v-80h-40v80c0 55.1-10.8 108.5-32 158.8-20.5 48.6-50 92.2-87.5 129.7s-81.1 66.9-129.7 87.5c-50.3 21.3-103.7 32-158.8 32s-108.5-10.8-158.8-32c-48.6-20.5-92.2-50-129.7-87.5s-66.9-81.1-87.5-129.7c-21.3-50.3-32-103.7-32-158.8v-80h-40v80c0 247.4 200.6 448 448 448s448-200.6 448-448zM492 622.4h40v60h-40v-60zM215.1 551.2l42.4-42.4 28.3 28.3-42.4 42.4-28.3-28.3zM112.1 262.6h60v40h-60v-40zM851.9 302.6v-40h60v40h-60zM738.2 537l28.3-28.3 42.4 42.4-28.3 28.3-42.4-42.4zM514.3 207.4c-11 0-20-9-20-20s9-20 20-20 20 9 20 20-9 20-20 20M514.3 247.4c33.1 0 60-26.9 60-60s-26.9-60-60-60-60 26.9-60 60 26.9 60 60 60zM442.9 325.5l54.2-154.2 32.7-13.3 7.9 34.3-94.8 133.2M311.3 579.3l269.4-378.4-22.4-97.6-93 37.8-154 438.2zM792 77.4h-560v-40h560v40z"  horiz-adv-x="1024" />

    
    <glyph glyph-name="shebeiguanli" unicode="&#58892;" d="M80.972173 834.270077h324.235592c101.573373 0 203.145723 0.099261 304.712957-0.036839 73.235978-0.099261 123.595946-49.866734 123.92545-122.92875 0.366344-80.500429 0.10847-161.006997 0.035816-241.512543-0.004093-5.865591-0.744967-11.729136-1.24127-19.052938h-38.833447v24.995277c0 76.743872 0.140193 153.484673-0.054236 230.225475-0.140193 56.906058-31.211862 88.10871-87.87028 88.13634-186.588629 0.10847-373.176235 0.058328-559.765886-0.004093-7.322779 0-14.646582-0.709151-23.793916-1.182942-0.424672-9.477862-1.096984-17.513886-1.102101-25.555026-0.058328-219.691561-0.076748-439.384146-0.022512-659.080823 0.013303-62.206784 29.021987-91.373057 90.714047-91.40478 97.807606-0.045025 195.619306-0.013303 293.42589-0.013303h25.221428v-38.796608c-7.581676-0.49221-14.145162-1.287319-20.706601-1.295505-102.32141-0.076748-204.643843-0.279363-306.966277 0.026606-72.256674 0.216941-121.722272 49.523927-121.80823 122.124431-0.284479 238.511185-0.10847 477.012138-0.108471 715.51309 0.002047 5.856381 0.002047 11.711739 0.002047 19.842931zM776.415159 388.26821c76.304873 0.26606 137.916093-60.800761 138.465608-137.236617 0.548492-77.000722-61.658292-140.629901-137.760551-140.912334-77.296457-0.278339-139.937123 63.017242-139.789766 141.263328 0.143263 75.371618 62.379723 136.619564 139.084709 136.885623z m0.145309-236.83501c53.584406 0.095167 97.750301 44.208874 98.116645 97.997942 0.36532 53.015448-44.441165 98.411357-97.651041 98.942453-54.333466 0.543376-98.855472-44.373627-98.664113-99.550297 0.178055-54.020334 44.008306-97.495498 98.198509-97.390098zM475.537554 539.175175c75.899644 0 126.217656 0.054235 202.118323-0.031722 23.975041-0.026606 29.857005-5.569856 29.857005-20.349467 0-16.60212-11.499915-20.107967-29.338188-20.090571-152.551418 0.157589-282.592147 0.031722-435.143565 0.153496-23.378453 0.023536-30.290887 3.948939-30.290887 21.648043 0 16.479323 11.133571 19.076474 29.766954 18.927071 76.655867-0.613984 156.38063-0.25685 233.030358-0.25685zM475.966319 670.224884c75.877131 0 126.172631-0.293689 202.046692 0.21694 18.117636 0.122797 29.53671-1.110287 29.53671-18.403138 0-15.452947-5.386684-20.028149-29.897937-20.041452-152.505369-0.090051-282.498002 0.099261-435.003372-0.234337-18.027585-0.040932-29.91124 2.777253-29.91124 18.322297 0 14.47262 6.979972 20.09671 30.272467 20.114107 76.631308 0.066515 156.328441 0.025583 232.95668 0.025583zM396.466684 367.476675c-50.381457 0.004093-103.83795 0.370437-154.216338-0.189312-18.506493-0.208754-29.499871 3.238764-29.499871 20.347421 0 13.59053 7.106862 20.35049 30.42187 20.371979 100.014878 0.085958 203.099674-0.181125 303.110459 0.226151 18.448164 0.075725 32.263821-3.595898 32.263821-19.265786 0-18.449187-9.224082-21.363564-33.189913-21.440311-49.628304-0.162706-99.256608-0.050142-148.890028-0.050142zM974.022749-18.760017c-2.330068-3.025916-4.837168-9.627265-8.927324-10.830673-6.584975-1.937119-15.629979-2.755764-21.083177 0.379647-8.885368 5.115508-15.676028 13.84431-23.425526 20.969591-87.134523 80.095199-199.439308 79.731926-285.84319-0.928139-4.106528-3.832282-8.091282-7.795547-12.012592-11.81407-8.02886-8.226359-18.327414-14.81952-26.641776-4.136204-3.743254 4.803399-1.62501 18.73162 2.900049 24.674983 33.036417 43.423999 76.676333 72.707952 130.018216 83.458807 95.040586 19.157315 174.405145-9.138124 235.831146-85.093027 2.642177-3.258207 4.972245-6.791683 7.255241-10.320043 0.725524-1.122567 0.835018-2.638083 1.928933-6.360872zM370.425587 236.223329c-42.088584 0.004093-87.261413 0.49221-129.339763-0.216941-19.097964-0.319272-28.16855 4.901637-28.16855 21.24179 0 17.087167 10.055007 19.694551 28.836769 19.572777 83.427084-0.524956 143.327336-0.49221 226.75442-0.023536 18.97619 0.103354 31.206746-3.827165 31.206746-20.222577 0-17.032932-13.192464-20.872377-31.884174-20.564361-41.325198 0.682545-56.06183 0.212848-97.405448 0.212848zM358.233917 104.793974c-38.250162-0.005117-79.574337-0.162706-117.826545 0.058328-20.922519 0.116657-27.65792 9.16473-27.65792 21.693068 0 15.442714 9.526981 19.043728 27.451212 18.957771 75.752288-0.38374 154.581658-0.288572 230.332922-0.089028 17.938558 0.049119 29.211299-4.79112 29.211299-19.781532 0-15.026228-10.727319-21.174252-29.003568-20.961404-37.500079 0.424672-75.005274 0.12689-112.5074 0.122797z"  horiz-adv-x="1024" />

    
    <glyph glyph-name="ln-" unicode="&#59174;" d="M945.812945 792.464291H78.177745A31.371636 31.371636 0 0 1 46.545455 760.832v-567.575273a31.371636 31.371636 0 0 1 31.63229-31.632291h132.123928a31.371636 31.371636 0 0 1 24.659782 11.627055L411.284945 391.912727l80.4864-66.522763c13.023418-10.696145 31.632291-9.299782 43.268655 2.792727l156.308945 168.876218c15.36-9.309091 33.037964-14.419782 52.102982-14.419782 55.370473 0 100.957091 45.130473 100.957091 100.957091S799.278545 684.553309 743.451927 684.553309c-55.361164 0-100.957091-45.130473-100.957091-100.957091 0-13.488873 2.792727-26.056145 7.447273-38.148654L508.509091 392.843636l-81.873455 67.919128c-6.516364 5.585455-14.885236 7.912727-23.263418 6.981818-8.378182-0.930909-15.825455-5.12-21.4016-11.627055l-186.554182-231.2192h-86.062545V729.655855h804.370618v-504.766837H479.204073a31.371636 31.371636 0 0 1-31.632291-31.632291v-154.456436h-184.692364a31.371636 31.371636 0 0 1-31.632291-31.632291 31.371636 31.371636 0 0 1 31.632291-31.632291h423.814982a31.371636 31.371636 0 0 1 31.6416 31.632291 31.371636 31.371636 0 0 1-31.6416 31.632291h-175.383273V161.624436h434.511128A31.371636 31.371636 0 0 1 977.454545 193.256727V760.832c-0.465455 17.677964-14.419782 31.632291-31.6416 31.632291M743.917382 621.726255c20.936145 0 37.6832-16.747055 37.6832-37.6832s-16.747055-37.6832-37.6832-37.6832a37.524945 37.524945 0 0 0-37.6832 37.6832c-0.465455 20.470691 16.747055 37.6832 37.6832 37.6832"  horiz-adv-x="1024" />

    
    <glyph glyph-name="shishibaobiao" unicode="&#58909;" d="M921.6 57.60000000000002H160c-12.8 0-25.6 12.8-25.6 25.6V684.8c0 12.8-12.8 25.6-25.6 25.6s-32-12.8-32-25.6v-627.2c0-25.6 25.6-51.2 57.6-51.2h787.2c12.8 0 25.6 12.8 25.6 25.6s-12.8 25.6-25.6 25.6m0 0zM211.2 256h51.2c6.4 0 19.2 6.4 25.6 12.8l57.6 83.2 83.2-172.8c6.4-6.4 12.8-12.8 19.2-12.8 12.8-6.4 32 6.4 32 19.2l108.8 339.2 83.2-243.2c0-12.8 12.8-19.2 25.6-19.2h140.8c6.4-12.8 25.6-25.6 44.8-25.6 32 0 57.6 25.6 57.6 51.2s-25.6 51.2-57.6 51.2c-19.2 0-38.4-12.8-44.8-25.6H716.8L620.8 620.8c-6.4 12.8-19.2 19.2-32 12.8-6.4 0-12.8 0-12.8-6.4l-6.4-6.4-115.2-352-76.8 147.2-6.4 6.4c-6.4 12.8-19.2 12.8-32 12.8-6.4 0-12.8-6.4-12.8-12.8L249.6 307.20000000000005h-38.4c-12.8 0-25.6-12.8-25.6-25.6s12.8-25.6 25.6-25.6m0 0z"  horiz-adv-x="1024" />

    
    <glyph glyph-name="weixiujilu" unicode="&#59011;" d="M609.28 435.2c-28.16 0-56.32-7.68-81.92-20.48-15.36-7.68-17.92-28.16-5.12-40.96l87.04-87.04-30.72-30.72-87.04 87.04c-5.12 5.12-10.24 7.68-17.92 7.68-10.24 0-17.92-5.12-23.04-15.36-33.28-66.56-23.04-151.04 33.28-207.36 35.84-35.84 79.36-51.2 125.44-51.2 20.48 0 40.96 2.56 58.88 10.24l145.92-140.8 17.92-17.92c10.24-10.24 25.6-10.24 35.84 0l17.92 17.92 35.84 35.84 17.92 17.92c10.24 10.24 10.24 25.6 0 35.84l-17.92 17.92-145.92 140.8c23.04 64 7.68 135.68-40.96 186.88-35.84 35.84-81.92 53.76-125.44 53.76z m117.76-222.72c-7.68-17.92-2.56-38.4 12.8-53.76l145.92-140.8-35.84-35.84-145.92 140.8c-10.24 10.24-23.04 15.36-35.84 15.36-5.12 0-10.24 0-17.92-2.56-12.8-5.12-28.16-7.68-43.52-7.68-33.28 0-66.56 12.8-89.6 38.4-30.72 30.72-43.52 71.68-35.84 112.64l58.88-58.88c10.24-10.24 23.04-15.36 35.84-15.36 12.8 0 25.6 5.12 35.84 15.36l30.72 30.72c20.48 20.48 20.48 53.76 0 71.68l-58.88 58.88c7.68 2.56 15.36 2.56 23.04 2.56 33.28 0 66.56-12.8 89.6-38.4 35.84-33.28 48.64-84.48 30.72-133.12zM460.8 460.8c0 15.36-12.8 25.6-25.6 25.6h-153.6c-12.8 0-25.6-10.24-25.6-25.6s12.8-25.6 25.6-25.6h153.6c12.8 0 25.6 12.8 25.6 25.6zM355.84 332.8h-69.12c-15.36 0-28.16-10.24-28.16-25.6s12.8-25.6 28.16-25.6h69.12c15.36 0 28.16 10.24 28.16 25.6s-12.8 25.6-28.16 25.6zM355.84 179.2h-69.12c-15.36 0-28.16-10.24-28.16-25.6s12.8-25.6 28.16-25.6h69.12c15.36 0 28.16 10.24 28.16 25.6s-12.8 25.6-28.16 25.6zM281.6 588.8h460.8c12.8 0 25.6 12.8 25.6 25.6s-12.8 25.6-25.6 25.6h-460.8c-12.8 0-25.6-12.8-25.6-25.6s12.8-25.6 25.6-25.6zM896 844.8h-768c-12.8 0-25.6-12.8-25.6-25.6v-870.4c0-15.36 12.8-25.6 25.6-25.6h384c15.36 0 25.6 10.24 25.6 25.6s-10.24 25.6-25.6 25.6h-358.4v819.2h716.8v-384c0-15.36 10.24-25.6 25.6-25.6s25.6 10.24 25.6 25.6v409.6c0 15.36-12.8 25.6-25.6 25.6z"  horiz-adv-x="1024" />

    
    <glyph glyph-name="kehuliebiao1" unicode="&#58947;" d="M861.867 170.667h-345.6c-12.8 0-25.6-12.8-25.6-25.6s12.8-25.6 25.6-25.6h345.6c12.8 0 25.6 12.8 25.6 25.6s-12.8 25.6-25.6 25.6zM913.067 285.867h-145.067c-25.6 46.933-59.733 85.333-106.667 115.2-46.933 29.867-102.4 46.933-157.867 46.933 81.067 42.667 136.533 123.733 136.533 213.333 0 128-106.667 234.667-238.933 230.4-132.267 0-238.933-106.667-238.933-234.667 0-89.6 51.2-174.933 136.533-213.333-157.867-12.8-277.333-140.8-277.333-298.667v-102.4c0-25.6 8.533-46.933 29.867-64 17.067-12.8 42.667-25.6 72.533-29.867 51.2-8.533 123.733-8.533 204.8-8.533h51.2c8.533-38.4 42.667-68.267 85.333-68.267h452.267c46.933 0 85.333 38.4 85.333 85.333v238.933c-4.267 51.2-42.667 89.6-89.6 89.6zM209.067 661.333c0 102.4 85.333 187.733 192 187.733 102.4 0 192-85.333 192-187.733s-85.333-187.733-192-187.733-192 85.333-192 187.733zM379.733 196.267v-204.8h-51.2c-81.067 0-149.333 0-196.267 8.533-51.2 12.8-59.733 29.867-59.733 46.933v102.4c0 140.8 115.2 251.733 256 251.733l166.4-4.267c89.6 0 170.667-42.667 217.6-115.2h-247.467c-46.933 0-85.333-38.4-85.333-85.333zM955.733-42.667c0-21.333-17.067-38.4-38.4-38.4h-452.267c-21.333 0-38.4 17.067-38.4 38.4v238.933c0 21.333 17.067 38.4 38.4 38.4h452.267c21.333 0 38.4-17.067 38.4-38.4v-238.933zM861.867 38.4h-345.6c-12.8 0-25.6-12.8-25.6-25.6s12.8-25.6 25.6-25.6h345.6c12.8 0 25.6 12.8 25.6 25.6 0 17.067-12.8 25.6-25.6 25.6z"  horiz-adv-x="1024" />

    
    <glyph glyph-name="line-chart_icon" unicode="&#58970;" d="M984.22-60.44h-916.66v916.66c0 15.342-12.438 27.78-27.78 27.78s-27.78-12.438-27.78-27.78v-944.44c-0-0.006-0-0.013-0-0.020 0-15.331 12.429-27.76 27.76-27.76 0.007 0 0.014 0 0.021 0l944.439-0c15.342 0 27.78 12.438 27.78 27.78 0 15.342-12.438 27.78-27.78 27.78zM150.89 175.67c0.009-0 0.020-0 0.030-0 7.661 0 14.596 3.111 19.609 8.139l251.191 251.191 160.92-160.92c5.026-5.028 11.97-8.137 19.64-8.137s14.614 3.11 19.64 8.137l270.83 270.84c5.026 5.026 8.135 11.97 8.135 19.64 0 15.34-12.435 27.775-27.775 27.775-7.67 0-14.614-3.109-19.64-8.135l-251.19-251.2-160.92 160.92c-5.026 5.028-11.97 8.137-19.64 8.137s-14.614-3.11-19.64-8.137l-270.83-270.84c-5.025-5.027-8.133-11.97-8.133-19.64 0-15.34 12.434-27.776 27.773-27.78z"  horiz-adv-x="1024" />

    
    <glyph glyph-name="jiankong" unicode="&#58880;" d="M963.712 872.96H60.288C39.68 872.96 19.2 852.096 19.2 831.232v-667.264c0-20.864 20.48-41.728 41.088-41.728h349.056c12.288 0 20.48 8.32 20.48 20.864s-8.192 20.864-20.48 20.864H60.288V831.232h903.424v-667.264H553.088c-20.48 0-41.088-20.864-41.088-41.728v-208.512H327.168c-12.288 0-20.48-8.32-20.48-20.864s8.192-20.864 20.48-20.864h410.624c12.288 0 20.48 8.32 20.48 20.864s-8.192 20.864-20.48 20.864H553.088V122.24000000000001h410.624c20.48 0 41.088 20.864 41.088 41.728V831.232c0 20.864-20.48 41.728-41.088 41.728zM635.136 497.664c-12.288 0-24.576-8.32-32.896-16.64l-41.088-62.592-94.464 221.056c-4.096 16.64-20.48 24.96-36.992 24.96s-28.8-8.32-36.992-24.96l-69.76-141.824h-180.48v-41.728h205.312l82.176 166.784 106.752-258.56c8.192-16.64 24.704-16.64 36.992-4.224l61.568 95.872h246.4v41.728H635.136v0.128z"  horiz-adv-x="1024" />

    
    <glyph glyph-name="zhexiantu" unicode="&#59102;" d="M976.896 11.264H90.112V799.232c0 23.552-18.944 41.984-42.496 41.984S5.12 822.272 5.12 799.232V-30.72c0-23.552 18.944-42.496 42.496-42.496h929.28c23.552 0 41.984 18.944 41.984 42.496 0 23.04-18.944 41.984-41.984 41.984zM158.72 56.32c10.24 0 20.48 3.584 28.16 11.264l262.656 249.344 90.624-125.952c7.168-9.728 17.92-15.872 30.208-16.896 11.776-1.024 24.064 3.584 32.256 12.288l353.28 358.4c15.872 15.872 15.872 41.984-0.512 57.856s-41.984 15.872-57.856-0.512L578.56 278.528l-89.6 124.416c-6.656 9.728-17.408 15.872-29.184 16.896-11.776 1.024-23.552-3.072-32.256-11.264l-296.96-281.6c-16.384-15.36-16.896-41.472-1.536-57.856 8.192-8.704 18.944-12.8 29.696-12.8zM282.624 368.64c10.24 0 20.48 3.584 28.16 11.264l165.888 157.184 69.632-105.984c6.656-10.24 17.92-16.896 30.208-18.432 12.288-1.024 24.576 3.072 33.28 11.776l253.44 253.44c15.872 15.872 15.872 41.984 0 57.856s-41.984 15.872-57.856 0l-217.6-217.6-69.12 104.96c-6.656 10.24-17.408 16.896-29.696 18.432-12.288 1.536-24.064-2.56-32.768-10.752l-201.216-190.976c-16.384-15.36-16.896-41.472-1.536-57.856 7.68-9.216 18.432-13.312 29.184-13.312z"  horiz-adv-x="1024" />

    
    <glyph glyph-name="biaochi" unicode="&#58913;" d="M380.957481 450.506987h578.506987-578.506987zM380.957481-93.976734h578.506987-578.506987zM380.957481-59.925602h578.506987-578.506987zM380.957481-25.902336h578.506987-578.506987zM380.957481 8.162728h578.506987-578.506987zM380.957481 42.185994h578.506987-578.506987zM380.957481 76.20926h578.506987-578.506987zM380.957481 110.274324h578.506987-578.506987zM380.957481 144.29759h578.506987-578.506987zM380.957481 178.209396h578.506987-578.506987zM380.957481 212.232663h578.506987-578.506987zM380.957481 246.297726h578.506987-578.506987zM380.957481 280.320993h578.506987-578.506987zM380.957481 314.344259h578.506987-578.506987zM380.957481 348.39539h578.506987-578.506987zM380.957481 382.418657h578.506987-578.506987zM380.957481 416.48372h578.506987-578.506987zM380.957481-128h578.506987-578.506987zM380.957481 450.506987v-578.506987 578.506987zM925.441202 450.506987v-578.506987 578.506987zM891.376138 450.506987v-578.506987 578.506987zM857.352872 450.506987v-578.506987 578.506987zM823.30174 450.506987v-578.506987 578.506987zM789.278474 450.506987v-578.506987 578.506987zM755.255208 450.506987v-578.506987 578.506987zM721.190144 450.506987v-578.506987 578.506987zM687.166878 450.506987v-578.506987 578.506987zM653.255072 450.506987v-578.506987 578.506987zM619.231805 450.506987v-578.506987 578.506987zM585.166741 450.506987v-578.506987 578.506987zM551.143475 450.506987v-578.506987 578.506987zM517.120209 450.506987v-578.506987 578.506987zM483.055145 450.506987v-578.506987 578.506987zM449.031879 450.506987v-578.506987 578.506987zM414.980748 450.506987v-578.506987 578.506987zM959.464468 450.506987v-578.506987 578.506987zM641.384546 157.366314h106.639673v-59.659142h-106.639673zM641.384546 475.265113h106.639673v-59.659143h-106.639673zM641.384546 368.778698h159.611195v-59.659142H641.384546zM641.384546 263.574078h106.639673v-59.659143h-106.639673zM641.384546 51.144618h159.611195v-59.659142H641.384546zM641.384546 896h106.639673v-59.659143h-106.639673zM641.384546 791.324816h106.639673v-59.659143h-106.639673zM641.384546 580.567261h106.639673v-59.659142h-106.639673zM641.384546 686.649632h159.611195v-59.659143H641.384546zM64.535532-8.514524h522.219519V896z m483.612447 99.157897h-1.950556v-0.682694H323.123502v49.251534h175.731145V435.209056h49.293332z"  horiz-adv-x="1024" />

    
    <glyph glyph-name="lishishuiweiquxianduibi" unicode="&#58951;" d="M128 384c53.12 62.4128 95.744 106.9568 128 128 130.0992 113.4336 320-260.8128 409.6-358.4 33.6128-41.6 126.4384-161.6384 179.2-76.8 29.696 82.4064 30.8992 147.712 153.6 153.6 0 0 25.6 9.6 25.6 25.6s-11.9808 25.6-25.6 25.6c-134.6048-6.4512-161.6128-89.6-179.2-153.6s-76.8 0-76.8 0-124.8 161.6128-230.4 307.2-206.6944 181.9392-307.2 102.4c-38.016-30.6944-76.0064-71.1936-102.4-102.4-45.5936-56.0128 6.4-75.2128 25.6-51.2z m870.4-460.8H51.2V870.4c0 12.0064-6.8096 25.6-25.6 25.6S0 881.5872 0 870.4v-972.8c0-18.1504 6.8096-25.6 25.6-25.6h972.8c16.4096 0 25.6 14.4128 25.6 25.6s-6.8096 25.6-25.6 25.6zM128 120.8832c53.12 62.4128 95.744 106.9568 128 128 130.0992 99.0464 249.0368-122.368 358.4-153.6 115.584-31.8976 192.0512 41.5488 230.4 153.6 29.696 82.4064 30.8992 326.912 153.6 332.8 0 0 25.6 9.6 25.6 25.6s-11.9808 25.6-25.6 25.6c-134.6048-6.4256-156.8-151.0144-179.2-256-14.7456-69.0944-26.3168-150.3488-76.8-204.8-65.2288-70.4768-179.6096-8.96-230.4 51.2-101.888 110.1568-206.6944 130.7392-307.2 51.2-38.016-30.6944-76.0064-71.1936-102.4-102.4-45.5936-56.0128 6.4-75.2128 25.6-51.2z"  horiz-adv-x="1024" />

    
    <glyph glyph-name="fenxibaobiao" unicode="&#59074;" d="M841.408-64H182.592A118.72 118.72 0 0 0 64 54.592V713.408A118.72 118.72 0 0 0 182.592 832h658.816A118.72 118.72 0 0 0 960 713.408v-658.816A118.72 118.72 0 0 0 841.408-64zM182.592 752.96a39.552 39.552 0 0 1-39.552-39.552v-658.816a39.552 39.552 0 0 1 39.552-39.552h658.816a39.552 39.552 0 0 1 39.552 39.552V713.408a39.552 39.552 0 0 1-39.552 39.552H182.592z m86.72-645.696a39.552 39.552 0 0 0-39.552 39.552V463.04a39.552 39.552 0 0 0 79.04 0v-316.224a39.552 39.552 0 0 0-39.488-39.552z m161.792 0a39.552 39.552 0 0 0-39.552 39.552v105.408a39.552 39.552 0 0 0 79.04 0v-105.408a39.552 39.552 0 0 0-39.488-39.552z m161.792 0a39.552 39.552 0 0 0-39.552 39.552V568.448a39.552 39.552 0 1 0 79.04 0v-421.632a39.552 39.552 0 0 0-39.488-39.552z m161.856 0a39.552 39.552 0 0 0-39.552 39.552V357.632a39.552 39.552 0 0 0 79.04 0v-210.816a39.552 39.552 0 0 0-39.488-39.552z"  horiz-adv-x="1024" />

    
    <glyph glyph-name="fenxibaogao" unicode="&#58921;" d="M289.81789199 638.2552292299999h423.75847399v-34.43047106H289.81789199z m0-87.40037083H581.15053024v-34.43047106H289.81789199z m0-87.40037084h185.39428711v-34.43047106h-185.39428711zM785.08497027 720.35810316v-672.71620632H218.3085635V720.35810316H785.08424607M819.51544133 754.78857422H183.87809244v-741.57714844h635.63734889V754.78857422zM289.81789199 100.61179661999995H395.75624314V251.57561266000005L289.81789199 145.63581311999997zM448.72686711 243.62900519000004v-143.01793277H554.66666666V240.98134302999995l-50.32151342-50.32078922z m158.90969932 55.61828613v-198.6362189h105.93979956V349.56952894000005l-26.48531199 29.13369834zM634.12115422 487.29141319l29.13369835-29.13369835-158.90969933-161.55808568-82.10287392 82.10359812-132.42438733-132.42438734v-50.32151341L422.24227932 328.38171386l82.10287392-79.45448755 182.74590076 182.74590074 26.48531199-23.83692562V487.29213739z"  horiz-adv-x="1024" />

    
    <glyph glyph-name="fenxibaobiao1" unicode="&#58895;" d="M841.408-64H182.592A118.72 118.72 0 0 0 64 54.592V713.408A118.72 118.72 0 0 0 182.592 832h658.816A118.72 118.72 0 0 0 960 713.408v-658.816A118.72 118.72 0 0 0 841.408-64zM182.592 752.96a39.552 39.552 0 0 1-39.552-39.552v-658.816a39.552 39.552 0 0 1 39.552-39.552h658.816a39.552 39.552 0 0 1 39.552 39.552V713.408a39.552 39.552 0 0 1-39.552 39.552H182.592z m86.72-645.696a39.552 39.552 0 0 0-39.552 39.552V463.04a39.552 39.552 0 0 0 79.04 0v-316.224a39.552 39.552 0 0 0-39.488-39.552z m161.792 0a39.552 39.552 0 0 0-39.552 39.552V252.224a39.552 39.552 0 0 0 79.04 0v-105.408a39.552 39.552 0 0 0-39.488-39.552z m161.792 0a39.552 39.552 0 0 0-39.552 39.552V568.448a39.552 39.552 0 1 0 79.04 0v-421.632a39.552 39.552 0 0 0-39.488-39.552z m161.856 0a39.552 39.552 0 0 0-39.552 39.552V357.632a39.552 39.552 0 0 0 79.04 0v-210.816a39.552 39.552 0 0 0-39.488-39.552z"  horiz-adv-x="1024" />

    
    <glyph glyph-name="fenxi" unicode="&#59257;" d="M914.4 18.2L776.3 156.3c59 67.6 94.7 156 94.7 252.7 0 212.4-172.1 384.5-384.5 384.5S102 621.4 102 409s172.2-384.5 384.5-384.5c97.2 0 185.9 36.1 253.6 95.5l138.1-138c5-5 11.5-7.5 18.1-7.5 6.6 0 13.1 2.5 18.1 7.5 10.1 9.9 10.1 26.2 0 36.2zM722.1 173.3c-30.6-30.7-66.3-54.6-106-71.5-40.9-17.3-84.6-26.1-129.6-26.1s-88.7 8.8-129.7 26.2c-39.7 16.7-75.3 40.9-106 71.5s-54.6 66.3-71.5 106c-17.3 41-26.1 84.6-26.1 129.6s8.8 88.7 26.2 129.7c16.7 39.7 40.9 75.3 71.5 106s66.3 54.6 106 71.5c41 17.4 84.7 26.2 129.7 26.2s88.7-8.8 129.7-26.2c39.7-16.7 75.3-40.9 106-71.5s54.6-66.3 71.5-106c17.2-41 26-84.7 26-129.7s-8.8-88.7-26.2-129.7c-16.8-39.7-40.9-75.3-71.5-106zM642.1 604.5c-30.5 0-55.3-24.8-55.3-55.3 0-10.6 3-20.4 8.1-28.8l-60.1-100.2c-1 0.1-2.2 0.1-3.2 0.1-5.8 0-11.3-0.9-16.5-2.5l-41.3 41.3c1.6 5.2 2.5 10.7 2.5 16.5 0 30.5-24.8 55.3-55.3 55.3s-55.3-24.8-55.3-55.3c0-10.6 3-20.4 8.1-28.8l-60.2-100.2c-1 0.1-2.2 0.1-3.2 0.1-30.5 0-55.3-24.8-55.3-55.3s24.8-55.3 55.3-55.3 55.3 24.8 55.3 55.3c0 10.6-3 20.4-8.1 28.8l60.2 100.3c1-0.1 2.2-0.1 3.2-0.1 5.8 0 11.3 0.9 16.5 2.5l41.3-41.3c-1.6-5.2-2.5-10.7-2.5-16.5 0-30.5 24.8-55.3 55.3-55.3 30.5 0 55.2 24.8 55.2 55.3 0 10.6-3 20.4-8.1 28.8l60.2 100.2c1-0.1 2.2-0.1 3.2-0.1 30.5 0 55.3 24.8 55.3 55.3 0 30.5-24.8 55.2-55.3 55.2z"  horiz-adv-x="1024" />

    
    <glyph glyph-name="quxian" unicode="&#59031;" d="M72.01109-54.546384h987.99215a37.445767 37.445767 0 1 0 0-72.01109H37.445767A37.445767 37.445767 0 0 0 0-89.111707V858.554233a37.445767 37.445767 0 0 0 72.01109 0z m135.380848 201.631051a37.445767 37.445767 0 0 0-51.847984 48.967541L434.946982 492.737898a37.445767 37.445767 0 0 0 54.728428 0l201.631051-224.6746L1028.318361 628.118746a37.445767 37.445767 0 0 0 51.847985-48.967541L714.35001 187.410877a37.445767 37.445767 0 0 0-54.728428 0l-201.631051 227.555044L210.272382 147.084667z m0 0"  horiz-adv-x="1109" />

    
    <glyph glyph-name="shebeiliebiao" unicode="&#59943;" d="M960 896c32 0 64-32 64-64v-128c0-32-32-64-64-64h-896C32 640 0 672 0 704v128C0 864 32 896 64 896h896z m0-768c32 0 64-32 64-64v-128c0-32-32-64-64-64h-896C32-128 0-96 0-64v128c0 32 32 64 64 64h896z m0 384c32 0 64-32 64-64v-128c0-32-32-64-64-64h-896C32 256 0 288 0 320v128C0 480 32 512 64 512h896z m-256 192H896v128h-192v-128z m-128 0H640v128h-64v-128z m-128 0H512v128h-64v-128z m256-768H896v128h-192v-128z m-128 0H640v128h-64v-128z m-128 0H512v128h-64v-128z m256 384H896v128h-192v-128z m-128 0H640v128h-64v-128z m-128 0H512v128h-64v-128z"  horiz-adv-x="1024" />

    
    <glyph glyph-name="daqiyali" unicode="&#59913;" d="M480 183.36V543.936a32 32 0 0 0 64 0V183.36a63.968 63.968 0 0 0-32-119.424 64 64 0 0 0-32 119.424z m160 104.576a32 32 0 0 0 0 64v32a32 32 0 0 0 0 64v32a32 32 0 0 0 0 64v8.96a124.224 124.224 0 0 1-130.56 119.04 120 120 0 0 1-125.44-119.04v-8.96a32 32 0 0 0 0-64v-32a32 32 0 0 0 0-64v-32a32 32 0 0 0 0-64v-96a96 96 0 1 0-192 0v32a32 32 0 0 0 64 0v-32a32 32 0 0 1 64 0v360.96a182.816 182.816 0 0 0 187.84 183.04H512a187.168 187.168 0 0 0 192-183.04v-360.96a32 32 0 0 1 64 0v32a32 32 0 0 0 64 0v-32a96 96 0 1 0-192 0v96z m160 32a32 32 0 0 0-32 32v192a32 32 0 0 0 64 0v-192a32 32 0 0 0-32-32z m-576 0a32 32 0 0 0-32 32v192a32 32 0 0 0 64 0v-192a32 32 0 0 0-32-32z"  horiz-adv-x="1024" />

    
    <glyph glyph-name="shebeiguanli1" unicode="&#59320;" d="M0 800v-384h1024v384H0z m960-320H64v256h896v-256zM192 544c38.4 0 64 25.6 64 64s-25.6 64-64 64-64-25.6-64-64 25.6-64 64-64zM192 640c19.2 0 32-12.8 32-32S211.2 576 192 576s-32 12.8-32 32 12.8 32 32 32zM896 672H320v-128h576v128zM864 576h-512V640h512v-64zM0-32h1024v384H0v-384z m64 320h896v-256H64v256zM192 224c-38.4 0-64-25.6-64-64s25.6-64 64-64 64 25.6 64 64-25.6 64-64 64zM192 128c-19.2 0-32 12.8-32 32s12.8 32 32 32 32-12.8 32-32-12.8-32-32-32zM320 96h576v128H320v-128z m32 96h512v-64h-512v64z"  horiz-adv-x="1024" />

    
    <glyph glyph-name="double-line" unicode="&#58912;" d="M143.36 159.69280000000003v-135.0144h752.64V762.8288l-201.6256-34.5088-222.3616-262.6048-328.6528-100.864v-153.856l354.7136 95.0784 237.568 264.5504 160.3584 35.6864v-55.0912l-133.4272-27.2896-236.6464-263.424-382.5664-100.864z m299.264 350.5664l224.7168 265.3696 279.8592 47.9232v-850.0736H92.16V402.7392l350.464 107.52zM896 606.3104000000001v-55.0912 55.0912zM143.36 159.74400000000003V210.94399999999996l-0.4096-0.1024v-51.3024l0.4096 0.1024zM51.1488-74.39359999999999V896h-51.2v-1021.5936H1024v51.2z"  horiz-adv-x="1024" />

    
    <glyph glyph-name="refresh" unicode="&#59004;" d="M907.378688 578.2323200000001L763.06295467 805.11685973c-5.14348373 8.0838656-14.27264853 12.75767467-23.8419968 12.4092416-9.58900907-0.40850773-18.26051413-5.90042453-22.6852864-14.43211946L683.39411627 739.5328l-5.25817174-10.08052907-2.83989333-5.44494933c-52.8515072 25.80916907-112.23913813 40.30354773-175.01607253 40.30354773-220.5646848 0-399.3665536-178.80296107-399.3665536-399.3665536S279.71638613-34.422237870000004 500.27997867-34.422237870000004c185.0507264 0 340.69763413 125.861888 386.02560853 296.64761174 5.45041067 20.74978987-6.95227733 41.98782293-27.7020672 47.4382336-20.74978987 5.45041067-41.98782293-6.95227733-47.4382336-27.7020672-36.5953024-137.4552064-161.9034112-238.731264-310.88421547-238.731264-177.67683413 0-321.71185493 144.0350208-321.71185493 321.71185493s144.0350208 321.71185493 321.71185493 321.71185493c49.81828267 0 96.97798827-11.34646613 139.07285334-31.55995306l-3.56406614-6.83431254-2.63017813-5.0429952-37.90493013-72.69143893a26.78019413 26.78019413 0 0 1-7.176192-18.27034453c0-15.0110208 15.0011904-26.61307733 27.410432-26.88177494h0.56797866c0.38884693 0 0.7569408 0 1.14578774 0.0196608L885.850112 536.9282559999999c9.568256 0.41833813 18.23976107 5.91025493 22.675456 14.43211947 4.44552533 8.51203413 3.98677333 18.74875733-1.14688 26.87194453z"  horiz-adv-x="1024" />

    
    <glyph glyph-name="shishi" unicode="&#59217;" d="M710.4 185.6c-6.4 0-12.8 0-19.2 6.4L524.8 300.8c-19.2 12.8-19.2 32-12.8 44.8 12.8 12.8 32 19.2 44.8 6.4l166.4-115.2c12.8-12.8 19.2-32 6.4-44.8 0-6.4-6.4-6.4-19.2-6.4zM537.6 294.4c-19.2 0-32 12.8-32 32v224c0 19.2 12.8 32 32 32s32-12.8 32-32v-224c0-19.2-12.8-32-32-32zM550.4-70.4c-115.2 0-224 44.8-300.8 128-12.8 12.8-12.8 32 0 44.8 12.8 12.8 32 12.8 44.8 0 70.4-70.4 160-108.8 256-108.8 198.4 0 364.8 160 364.8 364.8s-160 364.8-364.8 364.8c-160 0-307.2-108.8-352-262.4 0-19.2-19.2-32-32-25.6-19.2 6.4-25.6 25.6-25.6 38.4 51.2 179.2 224 307.2 409.6 307.2 236.8 0 428.8-192 428.8-428.8 0-230.4-192-422.4-428.8-422.4zM160 403.2c-19.2 0-32 6.4-32 25.6l-25.6 166.4c0 19.2 6.4 32 25.6 38.4 19.2 0 32-6.4 38.4-25.6L192 435.2c0-12.8-12.8-32-32-32zM160 403.2c-12.8 0-25.6 6.4-32 12.8-6.4 19.2 0 38.4 19.2 44.8l160 83.2c12.8 6.4 32 0 44.8-12.8 6.4-12.8 0-32-12.8-44.8l-166.4-83.2H160z"  horiz-adv-x="1024" />

    
    <glyph glyph-name="chigui" unicode="&#59133;" d="M613.4 796.6c-4.5 0-9-2.2-11.7-7l-467-798c-5.6-9.7 1-22.2 11.8-22.2h467c7.7 0 13.9 6.6 13.9 14.6V782c0.2 9.1-6.8 14.6-14 14.6z m-34.9-775.9H214.2l364.3 622.6v-622.6zM531.4 470.3c-2.1 0-4.2-1-5.5-3.3L305.7 90.7c-2.7-4.6 0.5-10.5 5.6-10.5h220.2c3.6 0 6.6 3.1 6.6 6.9V463.4c-0.1 4.3-3.4 6.9-6.7 6.9z m-16.5-365.9H343.1L514.9 398v-293.6zM876 796.9H702c-7.7 0-13.9-6.2-13.9-13.9v-799.4c0-7.7 6.2-13.9 13.9-13.9h174c7.7 0 13.9 6.2 13.9 13.9V782.9c0.2 7.6-6.1 14-13.9 14zM730.7 18V751.9h117.1v-4.1c-1.2 0.4-2.6 0.6-3.9 0.6h-22.7c-3.8 0-7.3-1.5-9.8-4-2.5-2.5-4-6-4-9.8 0-7.6 6.2-13.8 13.8-13.8h22.7c1.4 0 2.7 0.2 3.9 0.6v-44.8c-1.2 0.4-2.6 0.6-3.9 0.6h-22.7c-3.8 0-7.3-1.5-9.8-4-2.5-2.5-4-5.9-4-9.8 0-7.6 6.2-13.8 13.8-13.8h22.7c1.4 0 2.7 0.2 3.9 0.6v-47.5c-1.2 0.4-2.6 0.6-3.9 0.6h-49c-3.8 0-7.3-1.5-9.8-4-2.5-2.5-4-6-4-9.8 0-7.6 6.2-13.8 13.8-13.8h49c1.4 0 2.7 0.2 3.9 0.6v-46c-1.2 0.4-2.6 0.6-3.9 0.6h-22.7c-3.8 0-7.3-1.5-9.8-4-2.5-2.5-4-6-4-9.8 0-7.6 6.2-13.8 13.8-13.8h22.7c1.4 0 2.7 0.2 3.9 0.6V462c-1.2 0.4-2.6 0.6-3.9 0.6h-22.7c-3.8 0-7.3-1.5-9.8-4-2.5-2.5-4-5.9-4-9.8 0-7.6 6.2-13.8 13.8-13.8h22.7c1.4 0 2.7 0.2 3.9 0.6v-43.3c-1.2 0.4-2.6 0.6-3.9 0.6h-49c-3.8 0-7.3-1.5-9.8-4-2.5-2.5-4-6-4-9.8 0-7.6 6.2-13.8 13.8-13.8h49c1.4 0 2.7 0.2 3.9 0.6V325c-1.2 0.4-2.6 0.6-3.9 0.6h-22.7c-3.8 0-7.3-1.5-9.8-4-2.5-2.5-4-5.9-4-9.8 0-7.6 6.2-13.8 13.8-13.8h22.7c1.4 0 2.7 0.2 3.9 0.6v-46.1c-1.2 0.4-2.6 0.6-3.9 0.6h-22.7c-3.8 0-7.3-1.5-9.8-4s-4-6-4-9.8c0-7.6 6.2-13.8 13.8-13.8h22.7c1.4 0 2.7 0.2 3.9 0.6v-44.6c-1.2 0.4-2.6 0.6-3.9 0.6h-49c-3.8 0-7.3-1.5-9.8-4-2.5-2.5-4-5.9-4-9.8 0-7.6 6.2-13.8 13.8-13.8h49c1.4 0 2.7 0.2 3.9 0.6v-46c-1.2 0.4-2.6 0.6-3.9 0.6h-22.7c-3.8 0-7.3-1.5-9.8-4-2.5-2.5-4-5.9-4-9.8 0-7.6 6.2-13.8 13.8-13.8h22.7c1.4 0 2.7 0.2 3.9 0.6V38c-1.2 0.4-2.6 0.6-3.9 0.6h-22.7c-3.8 0-7.3-1.5-9.8-4s-4-6-4-9.8c0-2.3 0.6-4.4 1.5-6.3h-78.2z"  horiz-adv-x="1024" />

    
    <glyph glyph-name="gongdan" unicode="&#60471;" d="M704 480H320a32 32 0 0 1 0-64h384a32 32 0 0 1 0 64zM704 288H320a32 32 0 0 1 0-64h384a32 32 0 0 1 0 64zM832 864H192C139.072 864 96 820.928 96 768v-768c0-52.928 43.072-96 96-96h640c52.928 0 96 43.072 96 96V768c0 52.928-43.072 96-96 96zM320 800h384v-96H320V800z m544-800a32 32 0 0 0-32-32H192c-17.632 0-32 14.336-32 32V768c0 17.632 14.368 32 32 32h64v-96c0-35.296 28.704-64 64-64h384c35.296 0 64 28.704 64 64V800h64c17.664 0 32-14.368 32-32v-768z"  horiz-adv-x="1024" />

    
    <glyph glyph-name="ditu1" unicode="&#58940;" d="M511.99488 442.53696c70.17472 0 127.31392 54.36416 127.31392 121.25696 0 66.88256-57.1392 121.24672-127.31392 121.24672S384.68608 630.6816 384.68608 563.79392c-0.01024-66.89792 57.13408-121.25696 127.3088-121.25696z m0 194.01216c42.21952 0 76.38528-32.57856 76.38528-72.7552 0-40.13568-34.16576-72.76032-76.38528-72.76032-42.15296 0-76.3904 32.62464-76.3904 72.76032 0 40.17664 34.23744 72.7552 76.3904 72.7552zM867.75808 597.504c-0.9984-17.00352-1.41824-30.38208-4.82304-56.2944l107.41248 33.8688v-531.4048l-305.5616-84.992-355.96288 98.82624v0.14336l-0.24576-0.1024-0.27136 0.1024v-0.2048l-254.63296-81.74592V505.00608l105.40544 25.50784c-2.53952 14.57664-3.5584 30.09024-3.5584 45.60896v1.94048L2.7392 541.20448v-630.50752l50.92352 16.4608 254.90944 81.90464 356.20352-98.67776 356.49536 98.7392V639.67744L867.75808 597.504zM378.2144 219.48416c1.66912-2.39616 3.52256-4.65408 5.54496-6.76352 46.65344-56.29952 93.64992-93.75232 95.68768-95.3344l32.75264-25.96352 32.59392 26.15296c2.04288 1.60256 48.89088 39.49056 95.4368 95.5904 1.60256 1.68448 3.64032 4.02944 5.59616 6.92224 66.57024 86.43584 149.32992 211.6608 168.02304 320.08192 3.59424 24.70912 3.70688 39.68 3.70688 41.32352 0.62464 81.01376-31.77472 157.14816-91.20256 214.14912-57.5488 55.19872-133.6832 85.59616-214.36416 85.59616-80.33792 0-156.28288-30.39744-213.81632-85.59616C238.40768 738.34496 205.81376 661.8112 206.42816 580.1984c0-1.28512 0.09728-16.31232 3.5584-39.84384 20.096-116.0192 113.50016-250.14272 168.22784-320.8704zM511.99488 832.74752c140.56448 0 255.66208-112.0512 254.63296-251.25888 0 0 0-12.57984-3.05664-33.46944-16.80384-97.47456-96.2304-218.22976-159.89248-300.68736-0.52736-0.98816-1.536-1.94048-2.04288-2.44736-44.30336-53.80096-89.64096-90.20928-89.64096-90.20928s-45.32224 35.89632-89.63584 89.71776a11.61216 11.61216 0 0 0-2.03264 2.43712C356.6592 328.80128 277.22752 450.048 260.42368 547.07712c-3.06176 20.84352-3.06176 33.46944-3.06176 33.46944-1.01888 139.19744 114.06848 252.20096 254.63296 252.20096z"  horiz-adv-x="1024" />

    
    <glyph glyph-name="shanchu" unicode="&#60539;" d="M928.16 752H736V832a32 32 0 0 1-32 32H320a32 32 0 0 1-32-32v-80H95.84a32 32 0 0 1 0-64H129.6l77.92-698.656A96 96 0 0 1 302.912-96h418.144a96.032 96.032 0 0 1 95.424 85.344L894.4 688h33.728a32 32 0 0 1 0.032 64zM352 800h320v-48H352V800z m400.896-803.552a32 32 0 0 0-31.808-28.448H302.912a32 32 0 0 0-31.808 28.448L193.984 688h636.032l-77.12-691.552zM608 75.072a32 32 0 0 1 32 32V576.896a32 32 0 0 1-64 0v-469.824a32 32 0 0 1 32-32zM432 75.072a32 32 0 0 1 32 32V576.896a32 32 0 0 1-64 0v-469.824a32 32 0 0 1 32-32z"  horiz-adv-x="1024" />

    
    <glyph glyph-name="shebeiguanli2" unicode="&#59314;" d="M957.6 287.9l-50.9 3.2c-1.7 5.4-3.9 10.6-6.5 15.5l33.5 38.1c3.5 4 3.3 9.9-0.4 13.7l-24.5 24.5c-3.7 3.7-9.7 3.9-13.7 0.4L857 349.6c-4.8 2.5-9.8 4.5-15 6.2l-3.2 50.9c-0.3 5.3-4.7 9.4-10 9.4h-34.6c-5.3 0-9.6-4.1-10-9.4l-3.2-50.9c-5.2-1.7-10.3-3.8-15.1-6.3l-38.3 33.7c-4 3.5-9.9 3.3-13.7-0.4l-24.6-24.6c-3.7-3.7-3.9-9.7-0.4-13.7l33.7-38.3c-2.5-4.8-4.6-9.9-6.3-15.1l-50.9-3.2c-5.3-0.3-9.4-4.7-9.4-10v-34.8c0-5.3 4.1-9.6 9.4-10l50.9-3.2c1.7-5.2 3.8-10.3 6.3-15.1l-33.7-38.3c-3.5-4-3.3-9.9 0.4-13.7l24.6-24.6c3.7-3.7 9.7-3.9 13.7-0.4l38.3 33.7c4.8-2.5 9.9-4.6 15.1-6.3l3.2-50.9c0.3-5.3 4.7-9.4 10-9.4H829c5.3 0 9.6 4.1 10 9.4l3.2 50.9c5.2 1.7 10.3 3.8 15.1 6.3l38.3-33.7c4-3.5 9.9-3.3 13.7 0.4l24.6 24.6c3.7 3.7 3.9 9.7 0.4 13.7l-33.7 38.3c2.5 4.8 4.6 9.9 6.3 15.1l50.9 3.2c5.3 0.3 9.4 4.7 9.4 10v34.8c-0.2 5.3-4.3 9.6-9.6 10z m-146.1-72.4c-24.9 0-45 20.1-45 45s20.1 45 45 45 45-20.1 45-45-20.1-45-45-45zM618.4 93.5h-49L554 230h42v30c0 16.6-13.4 30-30 30H122V670h660v-163.9c0-16.6 13.4-30 30-30s30 13.4 30 30V680c0 27.6-22.4 50-50 50H112c-27.6 0-50-22.4-50-50v-400c0-27.6 22.4-50 50-50h238l-15.4-136.5h-54.9c-16.3 0-30.2-12.8-30.6-29.2-0.5-17 13.1-30.8 30-30.8h340c16.8 0 30.5 13.9 30 30.8-0.6 16.4-14.4 29.2-30.7 29.2z m-223.9 0L409.9 230h84l15.4-136.5H394.5z"  horiz-adv-x="1024" />

    
    <glyph glyph-name="shebeiguanli3" unicode="&#58905;" d="M821.968-17.297H215.87c-55.351 0-101.016 45.665-101.016 101.016V689.816c0 55.352 45.665 101.016 101.016 101.016h606.098c55.35 0 101.016-45.664 101.016-101.016V83.72c0-55.351-45.665-101.016-101.016-101.016z m56.735 712.648c0 29.06-23.525 51.2-51.2 51.2H208.95c-29.06 0-51.2-23.524-51.2-51.2V76.8c0-29.06 23.525-51.2 51.2-51.2h618.552c29.06 0 51.2 23.524 51.2 51.2V695.351zM770.768 151.524H489.859c-11.07-42.897-49.816-78.875-96.864-78.875s-85.795 35.978-96.865 78.875h-29.06c-8.302 0-19.373 4.152-22.14 12.454-2.768 9.687-2.768 11.07 0 19.373 2.767 8.303 12.454 12.454 22.14 12.454h29.06c11.07 42.898 49.816 78.876 96.865 78.876s85.794-35.978 96.864-78.876h280.909c9.686 0 19.373-4.15 22.14-12.454 2.768-8.302 2.768-8.302 0-17.989-2.767-9.686-12.454-13.838-22.14-13.838z m-379.157 80.26c-23.525 0-44.281-13.838-53.968-35.979-9.686-22.14-4.151-47.048 12.454-63.654 16.606-16.605 41.514-22.14 63.654-12.454 22.14 9.687 35.979 30.444 35.979 53.968 1.384 31.827-24.908 58.119-58.12 58.119zM267.07 364.627c-9.687 0-19.374 4.151-22.141 12.454-2.768 9.687-2.768 9.687 0 17.99 2.767 8.302 12.454 12.453 22.14 12.453h280.908c11.07 42.898 49.817 78.876 96.865 78.876s85.795-35.978 96.865-78.876h29.06c8.302 0 19.373-4.151 22.14-12.454 2.768-8.302 2.768-9.686 0-19.373-2.767-8.302-12.454-12.454-22.14-12.454h-29.06c-11.07-42.897-49.816-78.875-96.865-78.875s-85.794 35.978-96.865 78.875l-280.908 1.384z m377.772 80.26c-31.827 0-58.119-26.292-58.119-58.12 0-23.524 13.838-44.28 35.979-53.967 22.14-9.686 47.048-4.151 63.654 12.454 16.605 16.605 22.14 41.514 12.454 63.654-8.303 22.14-30.443 35.978-53.968 35.978z m125.925 127.308H489.859c-11.07-42.898-49.816-78.876-96.864-78.876s-85.795 35.978-96.865 78.876h-29.06c-8.302 0-19.373 4.15-22.14 12.454-2.768 9.686-2.768 11.07 0 19.373 2.767 8.302 12.454 12.454 22.14 12.454h29.06c11.07 42.897 49.816 78.875 96.865 78.875s85.794-35.978 96.864-78.875h280.909c9.686 0 19.373-4.152 22.14-12.454 2.768-8.303 2.768-8.303 0-17.99-2.767-9.686-12.454-13.837-22.14-13.837z m-379.157 80.26c-23.525 0-44.281-13.839-53.968-35.98-9.686-22.14-4.151-47.048 12.454-63.653 16.606-16.606 41.514-22.14 63.654-12.454s35.979 30.443 35.979 53.967c1.384 31.827-24.908 58.12-58.12 58.12z m0-27.677"  horiz-adv-x="1024" />

    
    <glyph glyph-name="kehuliebiao2" unicode="&#58911;" d="M631.481149 785.767002c-113.957086 0-205.817917-94.840102-205.817917-211.155776 0-116.439811 91.860832-211.155776 205.817917-211.155777 113.957086 0 205.817917 94.840102 205.817918 211.155777 0 116.315675-91.860832 211.155776-205.817918 211.155776z m0-352.298703c-74.730028 0-135.680931 62.937083-135.680931 141.01879 0 78.205843 60.950903 141.01879 135.680931 141.018791C706.211177 715.630016 767.16208 652.692932 767.16208 574.487089c0-78.081707-60.950903-141.01879-135.680931-141.01879zM239.58298 20.466966c-1.489635-20.358346 14.523942-37.737423 35.006425-37.737423h714.031761c20.358346 0 36.49606 17.379076 35.006425 37.737423-13.406716 177.51485-132.825797 316.919869-280.547945 316.919869H520.130925c-147.846284 0-267.265365-139.405019-280.547945-316.919869z m503.248393 246.782882c107.129591 0 199.859377-108.122682 210.659232-252.120741l35.006425 37.737422H274.465269l35.006425-37.737422c10.799855 143.99806 103.52964 251.996606 210.659231 251.996605h222.700448z m478.421142 360.119288c19.365256 0 35.130561 15.641169 35.130562 35.006425s-15.641169 35.130561-35.130562 35.130561H965.159413c-19.365256 0-35.006425-15.641169-35.006425-35.130561 0-19.365256 15.641169-35.006425 35.006425-35.006425h256.093102z m0-192.78361c19.365256 0 35.130561 15.641169 35.130562 35.006425s-15.641169 35.006425-35.130562 35.006425H949.642381c-19.365256 0-35.006425-15.641169-35.006425-35.006425s15.641169-35.006425 35.006425-35.006425h271.610134z m0-192.907747c19.365256 0 35.130561 15.641169 35.130562 35.130561 0 19.365256-15.641169 35.006425-35.130562 35.006425H1011.71051c-19.365256 0-35.006425-15.641169-35.006425-35.006425s15.641169-35.130561 35.006425-35.130561h209.542005z m0 0"  horiz-adv-x="1499" />

    
    <glyph glyph-name="kehuliebiao3" unicode="&#58980;" d="M824.9088 595.1232C824.9088 763.6224 697.70752 896 535.808 896 373.9136 896 246.7072 763.6224 246.7072 595.1232c0-110.91968 55.16288-206.1824 139.0592-258.32448C178.93888 281.4208 25.61536 93.58336 25.61536-128h60.82048c0 234.66496 188.4416 421.1968 425.56416 421.1968v2.1504c7.85408-0.64 15.77472-1.05472 23.81312-1.05472 161.8944 0 289.09568 132.33664 289.09568 300.83072z m-289.1008-240.64512c-127.20128 0-231.28576 108.26752-231.28576 240.6912 0 132.33152 104.08448 240.64512 231.28576 240.64512s231.29088-108.26752 231.29088-240.6912c0-132.33152-104.08448-240.64512-231.29088-240.64512z m57.80992-421.1968h404.76672v60.13952h-404.76672v-60.13952z m0 240.6912v-60.18048h404.76672v60.18048h-404.76672z"  horiz-adv-x="1024" />

    
    <glyph glyph-name="weixiuguanli" unicode="&#58915;" d="M906.752 665.088A212.992 212.992 0 0 0 862.208 435.2a200.704 200.704 0 0 0-245.248-33.28L563.2 340.48l40.448-41.472 24.064 24.576a31.744 31.744 0 0 0 44.544 0l195.072-201.728a32.768 32.768 0 0 0 0-45.568l-89.088-91.136a31.744 31.744 0 0 0-44.544 0l-195.584 201.728a32.768 32.768 0 0 0 0 45.568l22.016 22.528-38.4 39.424-272.384-301.568a61.952 61.952 0 0 0-89.6 0l-22.016 22.528a65.536 65.536 0 0 0 0 91.136l307.2 263.168-204.8 209.408H176.64L102.4 701.952l59.392 61.952 122.88-77.312v-64.512l204.8-211.968 59.904 51.2a211.968 211.968 0 0 0 19.968 271.36 201.728 201.728 0 0 0 222.208 45.568l-129.024-133.12 111.104-113.664zM211.456 74.24a30.72 30.72 0 0 1-44.544 0 32.768 32.768 0 0 1 0-45.568 31.744 31.744 0 1 1 44.544 45.568z"  horiz-adv-x="1024" />

    
    <glyph glyph-name="fenxi1" unicode="&#59103;" d="M1143.507692-51.938462H76.036923V857.969231a38.030769 38.030769 0 1 1-76.036923 0v-947.938462A37.956923 37.956923 0 0 1 38.030769-128h1105.476923a38.030769 38.030769 0 0 1 0 76.061538zM277.218462 21.218462a46.498462 46.498462 0 0 1 46.76923 36.923076V264.123077c0 35.692308-21.046154 56.763077-46.76923 56.763077s-46.769231-21.070769-46.769231-56.763077v-205.981539a46.498462 46.498462 0 0 1 46.769231-36.923076zM472.024615 432.566154v-372.726154a48.123077 48.123077 0 0 1 93.538462 0V432.566154c0 35.692308-21.046154 56.763077-46.769231 56.763077s-46.769231-21.070769-46.769231-56.763077zM760.369231 317.883077c-25.747692 0-46.769231-21.070769-46.769231-56.763077v-196.012308a46.498462 46.498462 0 0 1 46.769231-36.923077 46.498462 46.498462 0 0 1 46.769231 36.923077v196.012308c0 35.692308-20.996923 56.763077-46.769231 56.763077zM1001.353846 454.793846c-25.747692 0-46.769231-21.070769-46.769231-56.763077v-338.215384a46.498462 46.498462 0 0 1 46.769231-36.923077 46.498462 46.498462 0 0 1 46.769231 36.923077V398.030769a49.230769 49.230769 0 0 1-46.769231 56.763077zM248.590769 480.566154a38.006154 38.006154 0 0 1 25.156923-9.846154 37.464615 37.464615 0 0 1 28.652308 12.873846l199.384615 223.532308 225.206154-225.28a38.818462 38.818462 0 0 1 28.086154-11.126154 36.16 36.16 0 0 1 27.495385 12.873846l269.12 300.061539a38.104615 38.104615 0 1 1-56.615385 50.904615l-242.264615-270.326154-225.772308 225.28a36.603077 36.603077 0 0 1-28.086154 11.126154 38.227692 38.227692 0 0 1-27.495384-12.873846L245.686154 534.4a38.030769 38.030769 0 0 1 2.904615-53.833846z"  horiz-adv-x="1181" />

    
    <glyph glyph-name="shebeiliebiao1" unicode="&#59361;" d="M877.34 723.15H602.353c-47.14 0-83.806-36.664-83.806-83.805v-274.987c0-47.14 36.665-83.806 83.806-83.806h112.614c7.857 0 15.713 7.857 15.713 15.714s-7.856 15.714-15.713 15.714H602.353c-28.808 0-52.379 23.57-52.379 52.378V639.345c0 28.808 23.57 52.379 52.379 52.379H877.34c28.808 0 52.379-23.57 52.379-52.379v-201.657c-5.238 2.619-10.476 2.619-15.714 2.619H879.96c-41.903 0-73.33-34.046-73.33-73.33v-47.14c0-23.571 18.333-39.285 39.284-39.285h31.427c47.14 0 83.806 36.665 83.806 83.806V639.345c2.619 44.522-36.665 83.806-83.806 83.806z m52.379-358.792c0-28.808-23.57-52.378-52.379-52.378h-31.427c-5.238 0-7.857 2.618-7.857 7.856v47.141c0 23.57 18.333 41.903 41.903 41.903h34.046c7.857 0 15.714-7.857 15.714-15.714v-28.808zM610.21 594.824h272.368c7.857 0 15.714 7.856 15.714 15.713s-7.857 15.714-15.714 15.714H610.21c-7.857 0-15.714-7.857-15.714-15.714s7.857-15.713 15.714-15.713z m0-102.139h272.368c7.857 0 15.714 7.857 15.714 15.714s-7.857 15.714-15.714 15.714H610.21c-7.857 0-15.714-7.857-15.714-15.714s7.857-15.714 15.714-15.714z m162.373-70.71H610.21c-7.857 0-15.714-7.857-15.714-15.714s7.857-15.714 15.714-15.714h162.373c7.857 0 15.714 7.857 15.714 15.714s-7.857 15.713-15.714 15.713zM366.65 534.587c26.189 41.903 26.189 94.282 0 136.184-28.809 44.522-81.187 68.092-133.566 57.617-5.237 0-10.475-5.238-13.094-10.476-5.238-2.619-5.238-10.476 0-15.714l41.903-65.473-36.665-23.57-41.903 68.092c-2.62 5.238-7.857 7.857-15.714 7.857-5.238 0-10.475-2.62-15.713-5.238-34.046-44.522-36.665-104.757-7.857-149.279 26.19-41.903 75.949-65.473 123.09-60.235l133.565-219.99c5.238-10.476 15.713-15.713 26.189-18.332h10.476c7.856 0 15.713 2.619 23.57 5.238l34.046 20.95c10.476 5.239 15.714 15.715 18.332 26.19 2.62 10.476 0 23.57-5.237 31.427L366.65 534.588z m109.995-240.94l-34.047-20.952h-2.618s-2.62 0-2.62 2.619L293.32 503.16c-2.62 5.238-10.476 7.857-15.714 7.857h-2.619c-39.284-7.857-78.568 10.476-96.9 41.903-18.333 26.189-20.951 54.997-10.476 81.186l36.665-57.616c5.238-7.857 15.714-10.476 26.19-5.238l68.092 41.903c7.856 5.238 10.475 18.332 5.237 26.19l-34.046 54.997c26.19-2.62 52.379-18.333 65.474-41.903 20.95-31.427 18.332-75.949-5.238-104.757-5.238-5.238-5.238-15.714 0-20.952l146.66-225.227v-7.857zM940.194 896H128.327C57.617 896 0 838.384 0 767.673v-576.164c0-70.711 57.616-128.327 128.327-128.327h811.867c70.711 0 128.328 57.616 128.328 128.327V767.673C1071.14 838.383 1013.524 896 940.194 896z m57.617-704.491c0-31.427-26.19-54.997-54.998-54.997H130.946c-31.427 0-54.997 26.189-54.997 54.997V767.673c0 31.427 26.19 54.997 54.997 54.997h811.867c31.427 0 54.998-26.19 54.998-54.997v-576.164z m-91.663-243.56H704.491V-31.1c0 18.333-13.095 31.427-31.427 31.427H377.125c-18.332 0-31.427-13.094-31.427-31.427v-20.951H144.041c-20.951 0-36.665-15.714-36.665-36.665s15.714-36.665 36.665-36.665h762.107c20.952 0 36.665 15.713 36.665 36.665s-15.713 36.665-36.665 36.665z"  horiz-adv-x="1071" />

    
    <glyph glyph-name="fenxi2" unicode="&#58917;" d="M903-33.5H132.5c-20.1 0-36.5 16.4-36.5 36.6V776.5c0 13.8 11.2 25 25 25s25-11.2 25-25v-760h757c13.8 0 25-11.2 25-25s-11.2-25-25-25zM241 367.3h50V100h-50zM417.7 449h50v-349h-50zM594.3 367.3h50V100h-50zM771 512h50v-412h-50zM243.1 428.8L213 469.2l220.3 156.9 187-114.3 184 150.4 32.7-38.4-212.4-173.6-189.1 115.7zM743.7 685.8l139.4 2.9-31.8-134.2"  horiz-adv-x="1024" />

    
    <glyph glyph-name="guzhang1" unicode="&#60441;" d="M1114.854807-128H41.853738a42.046909 42.046909 0 0 0-36.0908 20.443941A40.920078 40.920078 0 0 0 5.376596-66.635981L541.94152 874.912155a41.853738 41.853738 0 0 0 72.696724 0L1151.203169-66.635981a41.30642 41.30642 0 0 0-0.257561-40.984468 42.336666 42.336666 0 0 0-36.090801-20.379551z m-602.790417 240.948752v-120.409986h132.386594v120.409986z m0 451.698421v-361.326542h132.386594V564.647173z"  horiz-adv-x="1156" />

    
    <glyph glyph-name="shebeiguanli4" unicode="&#58896;" d="M528.1 150.2h14v-14h-14zM740.1 654.4H286.6c-42.3 0-76.8-34.4-76.8-76.8V487c0-42.3 34.4-76.8 76.8-76.8h453.5c42.3 0 76.8 34.4 76.8 76.8v90.6c0 42.4-34.5 76.8-76.8 76.8z m25.6-167.3c0-14.1-11.5-25.6-25.6-25.6H286.6c-14.1 0-25.6 11.5-25.6 25.6v90.6c0 14.1 11.5 25.6 25.6 25.6h453.5c14.1 0 25.6-11.5 25.6-25.6v-90.6zM612.1 558h102.3v-51.2H612.1zM509.7 558h51.2v-51.2h-51.2zM740.1 359.3H286.6c-42.3 0-76.8-34.4-76.8-76.8V192c0-42.3 34.4-76.8 76.8-76.8h453.5c42.3 0 76.8 34.4 76.8 76.8v90.6c0 42.3-34.5 76.7-76.8 76.7zM765.7 192c0-14.1-11.5-25.6-25.6-25.6H286.6c-14.1 0-25.6 11.5-25.6 25.6v90.6c0 14.1 11.5 25.6 25.6 25.6h453.5c14.1 0 25.6-11.5 25.6-25.6V192zM612.1 262.9h102.3v-51.2H612.1zM509.7 262.9h51.2v-51.2h-51.2z"  horiz-adv-x="1024" />

    
    <glyph glyph-name="navicon" unicode="&#58884;" d="M192 414h640v-64H192v64zM192 606h640v-64H192v64zM192 222h640v-64H192v64z"  horiz-adv-x="1024" />

    
    <glyph glyph-name="renwuzhongxin" unicode="&#58885;" d="M0.1 478.8H1024v-194.2H0.1zM0.1 114H1024v-194.2H0.1zM0.1 852.7H1024v-194.2H0.1z"  horiz-adv-x="1024" />

    
    <glyph glyph-name="renwuzhongxin1" unicode="&#58886;" d="M25.5 278.6h973.2c14.1 0 25.5 11.4 25.5 25.5V449.5c0 14.1-11.4 25.5-25.5 25.5H25.5C11.4 475 0 463.6 0 449.5v-145.4c0-14.1 11.4-25.5 25.5-25.5zM25.5-90.2h973.2c14.1 0 25.5 11.4 25.5 25.5V80.7c0 14.1-11.4 25.5-25.5 25.5H25.5C11.4 106.1 0 94.7 0 80.7v-145.4c0-14.1 11.4-25.5 25.5-25.5zM0 827.6v-145.4c0-14.1 11.4-25.5 25.5-25.5h973.2c14.1 0 25.5 11.4 25.5 25.5V827.6c0 14.1-11.4 25.5-25.5 25.5H25.5C11.4 853.1 0 841.7 0 827.6z"  horiz-adv-x="1024" />

    
    <glyph glyph-name="ditu2" unicode="&#59003;" d="M962.56 428.9536a28.1088 28.1088 0 0 1-23.296 5.7344l-182.1696-36.2496c-9.1648-19.6608-18.944-39.4752-29.3888-59.3408L921.6 378.2144v-357.2224l-230.0416-46.592-355.84 51.2a27.1872 27.1872 0 0 1-4.0448 0.256 27.8016 27.8016 0 0 1-5.5808-0.256L102.4-19.5584V337.92l176.4352 35.584q-11.776 23.6032-22.1184 46.9504L73.728 384a27.904 27.904 0 0 1-22.528-27.3408v-405.3504a27.8528 27.8528 0 0 1 10.24-21.6064 28.2112 28.2112 0 0 1 17.8176-6.5024 27.2384 27.2384 0 0 1 5.4784 0.5632l249.856 49.7152 351.488-49.8176a26.624 26.624 0 0 1 9.5232 0.256L950.272-25.6a27.9552 27.9552 0 0 1 22.528 27.5968V407.3472a27.9552 27.9552 0 0 1-10.24 21.6064z m-17.7664-426.9568zM563.2 588.8a51.2 51.2 0 1 0-51.2 51.2 51.2 51.2 0 0 0 51.2-51.2z m-51.2 256a256 256 0 0 1-256-256c0-141.3632 256-409.6 256-409.6s256 268.1856 256 409.6a256 256 0 0 1-256 256zM307.2 588.8a204.8 204.8 0 0 0 409.6 0c0-76.8-113.7664-230.912-204.8-333.7728C420.9664 357.9904 307.2 512 307.2 588.8z"  horiz-adv-x="1024" />

    
    <glyph glyph-name="baseline-menu-px" unicode="&#58901;" d="M128 128h768v85.333333H128v-85.333333z m0 213.333333h768v85.333334H128v-85.333334z m0 298.666667v-85.333333h768V640H128z"  horiz-adv-x="1024" />

    
    <glyph glyph-name="caidan" unicode="&#58946;" d="M896 736a32 32 0 0 0-32-32H160a32 32 0 1 0 0 64h704a32 32 0 0 0 32-32zM896 384a32 32 0 0 0-32-32H160a32 32 0 1 0 0 64h704a32 32 0 0 0 32-32zM896 32a32 32 0 0 0-32-32H160a32 32 0 1 0 0 64h704a32 32 0 0 0 32-32z"  horiz-adv-x="1024" />

    
    <glyph glyph-name="device-map" unicode="&#59944;" d="M934.4 426.144a26.352 26.352 0 0 1-21.84 5.376l-170.784-33.984c-8.592-18.432-17.76-37.008-27.552-55.632L896 378.576v-334.896l-215.664-43.68-333.6 48a25.488 25.488 0 0 1-3.792 0.24 26.064 26.064 0 0 1-5.232-0.24L128 5.663999999999987V340.79999999999995l165.408 33.36q-11.04 22.128-20.736 44.016L101.12 384a26.16 26.16 0 0 1-21.12-25.632v-380.016a26.112 26.112 0 0 1 9.6-20.256 26.448 26.448 0 0 1 16.704-6.096 25.536 25.536 0 0 1 5.136 0.528l234.24 46.608 329.52-46.704a24.96 24.96 0 0 1 8.928 0.24L922.88 0a26.208 26.208 0 0 1 21.12 25.872V405.888a26.208 26.208 0 0 1-9.6 20.256z m-16.656-400.272zM560 576a48 48 0 1 0-48 48 48 48 0 0 0 48-48z m-48 240a240 240 0 0 1-240-240c0-132.528 240-384 240-384s240 251.424 240 384a240 240 0 0 1-240 240zM320 576a192 192 0 0 0 384 0c0-72-106.656-216.48-192-312.912C426.656 359.616 320 504 320 576z"  horiz-adv-x="1024" />

    
    <glyph glyph-name="monitor" unicode="&#59945;" d="M893.28090869 743.0018182599999H130.71090869A27.57272695 27.57272695 0 0 1 102.90909131 715.2v-498.84545479a27.57272695 27.57272695 0 0 1 27.80181738-27.80181826h116.1245461a27.57272695 27.57272695 0 0 1 21.67363652 10.21909131L423.48090869 390.95454521l70.74-58.46727216c11.44636347-9.40090869 27.80181826-8.17363653 38.02909131 2.45454521l137.38090869 148.42636348c13.5-8.18181826 29.03727305-12.67363652 45.79363652-12.67363653 48.66545479 0 88.73181826 39.66545479 88.73181827 88.73181827S764.49090869 648.15818174 715.42454521 648.15818174c-48.65727305 0-88.73181826-39.66545479-88.73181826-88.73181826 0-11.85545479 2.45454521-22.90090869 6.54545479-33.52909043L508.93181826 391.77272695l-71.95909131 59.6945461c-5.72727305 4.90909131-13.08272695 6.95454521-20.44636348 6.13636347-7.36363653-0.81818174-13.90909131-4.5-18.81-10.21909131l-163.96363652-203.22h-75.64090869V687.79909131h706.96636348v-443.64272784H483.17545479a27.57272695 27.57272695 0 0 1-27.80181826-27.80181826v-135.75272695h-162.32727306a27.57272695 27.57272695 0 0 1-27.80181826-27.80181826 27.57272695 27.57272695 0 0 1 27.80181827-27.80181826h372.49363652a27.57272695 27.57272695 0 0 1 27.81 27.80181826 27.57272695 27.57272695 0 0 1-27.81 27.80181826h-154.14545479V188.55272694999996h381.8945461A27.57272695 27.57272695 0 0 1 921.09090869 216.35454520999997V715.2c-0.40909131 15.53727305-12.67363652 27.80181826-27.81 27.80181826M715.83363652 592.93909131c18.40090869 0 33.12-14.71909131 33.12000001-33.12s-14.71909131-33.12-33.12-33.12a32.98090869 32.98090869 0 0 0-33.12 33.12c-0.40909131 17.99181826 14.71909131 33.12 33.12 33.12"  horiz-adv-x="1024" />

    
    <glyph glyph-name="client-list" unicode="&#59947;" d="M787.0175 569.5575C787.0175 717.6525 675.2195 834 532.925 834 390.635 834 278.8325 717.6525 278.8325 569.5575c0-97.488 48.483-181.215 122.22-227.043C219.2705 293.8425 84.5135 128.75099999999998 84.5135-66h53.4555c0 206.2485 165.6225 370.1925 374.031 370.1925v1.89c6.903-0.5625 13.8645-0.927 20.9295-0.927 142.29 0 254.088 116.3115 254.088 264.402z m-254.0925-211.5045c-111.798 0-203.2785 95.157-203.2785 211.545 0 116.307 91.4805 211.5045 203.2785 211.5045s203.283-95.157 203.283-211.545c0-116.307-91.4805-211.5045-203.283-211.5045z m50.8095-370.1925h355.752v52.857h-355.752v-52.857z m0 211.545v-52.893h355.752v52.893h-355.752z"  horiz-adv-x="1024" />

    
    <glyph glyph-name="analytical-app" unicode="&#59948;" d="M820.82-36H203.18A111.3 111.3 0 0 0 92 75.17999999999995V692.8199999999999A111.3 111.3 0 0 0 203.18 804h617.64A111.3 111.3 0 0 0 932 692.8199999999999v-617.64A111.3 111.3 0 0 0 820.82-36zM203.18 729.9a37.08 37.08 0 0 1-37.08-37.08v-617.64a37.08 37.08 0 0 1 37.08-37.08h617.64a37.08 37.08 0 0 1 37.08 37.08V692.8199999999999a37.08 37.08 0 0 1-37.08 37.08H203.18z m81.3-605.34a37.08 37.08 0 0 0-37.08 37.08V458.1a37.08 37.08 0 0 0 74.1 0v-296.46a37.08 37.08 0 0 0-37.02-37.08z m151.68 0a37.08 37.08 0 0 0-37.08 37.08v98.82a37.08 37.08 0 0 0 74.1 0v-98.82a37.08 37.08 0 0 0-37.02-37.08z m151.68 0a37.08 37.08 0 0 0-37.08 37.08V556.9200000000001a37.08 37.08 0 1 0 74.1 0v-395.28a37.08 37.08 0 0 0-37.02-37.08z m151.74 0a37.08 37.08 0 0 0-37.08 37.08V359.28a37.08 37.08 0 0 0 74.1 0v-197.64a37.08 37.08 0 0 0-37.02-37.08z"  horiz-adv-x="1024" />

    
    <glyph glyph-name="device-management" unicode="&#59950;" d="M813.03088379 663.45098877H586.44857788c-38.84216309 0-69.05401612-30.21020508-69.05401611-69.05319214v-226.58230591c0-38.84216309 30.21102906-69.05401612 69.05401611-69.05401611h92.79107666c6.47396851 0 12.94711304 6.47396851 12.94711304 12.94793701s-6.47314453 12.94793701-12.94711304 12.94793702H586.44857788c-23.73706055 0-43.15896607 19.42108154-43.15896606 43.15814208V594.39779663c0 23.73706055 19.42108154 43.15896607 43.15896606 43.15896607H813.03088379c23.73706055 0 43.15896607-19.42108154 43.15896606-43.15896607v-166.1602478c-4.31597901 2.1579895-8.631958 2.1579895-12.94793701 2.1579895H815.18969727c-34.52700805 0-60.4220581-28.05303955-60.42205811-60.4220581v-38.84216309c0-19.42190552 15.10592651-32.36984253 32.36901855-32.36984253h25.89505005c38.84216309 0 69.05401612 30.21102906 69.05401612 69.05401612V594.39779663c2.1579895 36.68499756-30.21102906 69.05401612-69.05401612 69.05401611z m43.15896606-295.63549805c0-23.73706055-19.42108154-43.15814209-43.15896607-43.15814208h-25.89505004c-4.31597901 0-6.47396851 2.15716552-6.47396851 6.47314453v38.84298706c0 19.42108154 15.10592651 34.52700805 34.52700806 34.52700805h28.05303955c6.47396851 0 12.94793701-6.47396851 12.94793701-12.94793701v-23.73706054zM592.92254638 557.71362305h224.42431641c6.47396851 0 12.94793701 6.47314453 12.94793702 12.94711304s-6.47396851 12.94793701-12.94793702 12.94793701H592.92254638c-6.47396851 0-12.94793701-6.47396851-12.94793701-12.94793701s6.47396851-12.94711304 12.94793701-12.94711304z m0-84.15994263h224.42431641c6.47396851 0 12.94793701 6.47396851 12.94793702 12.94793701s-6.47396851 12.94793701-12.94793702 12.94793702H592.92254638c-6.47396851 0-12.94793701-6.47396851-12.94793701-12.94793702s6.47396851-12.94793701 12.94793701-12.94793701z m133.79122925-58.26324463H592.92254638c-6.47396851 0-12.94793701-6.47396851-12.94793701-12.94793701s6.47396851-12.94793701 12.94793701-12.94793701h133.79122925c6.47396851 0 12.94793701 6.47396851 12.94793702 12.94793701s-6.47396851 12.94711304-12.94793702 12.94711304zM392.23529052 508.0798645c21.57907104 34.52700805 21.57907104 77.68597412 0 112.21215821-23.73788453 36.68499756-66.89602661 56.10607911-110.05499266 47.47494506-4.31515503 0-8.63113403-4.31597901-10.78912354-8.631958-4.31597901-2.1579895-4.31597901-8.631958 0-12.94793701l34.52700805-53.94808961-30.21102905-19.42108154-34.52700806 56.1060791c-2.15881348 4.31597901-6.47396851 6.47396851-12.94793701 6.47396851-4.31597901 0-8.63113403-2.15881348-12.94711304-4.31597901-28.05303955-36.68499756-30.21102906-86.31710815-6.4739685-123.00210571 21.57989502-34.52700805 62.58004761-53.9480896 101.42303467-49.63211059l110.0541687-181.26617432c4.31597901-8.631958 12.94711304-12.94711304 21.57907104-15.10510254h8.63195801c6.47314453 0 12.94711304 2.1579895 19.42108154 4.315979l28.05303956 17.26226807c8.631958 4.31680297 12.94793701 12.94876099 15.10510253 21.57989502 2.15881348 8.631958 0 19.42108154-4.31515503 25.89505005L392.23529052 508.08068848z m90.63308716-198.52844238l-28.05386352-17.26391602h-2.15716552s-2.15881348 0-2.15881348 2.1579895L331.81323242 482.18481445c-2.15881348 4.31597901-8.631958 6.47396851-12.94793701 6.47396851h-2.1579895c-32.36901855-6.47396851-64.73803711 8.631958-79.84313965 34.52700806-15.10592651 21.57907104-17.26309204 45.31613159-8.63195801 66.89520263l30.21102905-47.47412109c4.31597901-6.47396851 12.94793701-8.631958 21.57989502-4.31597901l56.10607911 34.52700806c6.47314453 4.31597901 8.63113403 15.10510254 4.31515503 21.57989502l-28.05303956 45.3161316c21.57989502-2.15881348 43.15896607-15.10592651 53.94891357-34.52700807 17.26226807-25.89505005 15.10510254-62.58004761-4.31597899-86.31710815-4.31597901-4.31597901-4.31597901-12.94793701 0-17.26391602l120.8441162-185.58132934v-6.4739685zM864.82098388 805.875H195.86318969C137.59994507 805.875 90.125 758.40087891 90.125 700.13681031v-474.74450684c0-58.2640686 47.47412109-105.73818969 105.73818969-105.7381897h668.95779419c58.2640686 0 105.73901367 47.47412109 105.73901368 105.7381897V700.13681031C972.71716309 758.40005493 925.24304199 805.875 864.82098388 805.875z m47.47494508-580.48269653c0-25.89505005-21.57989502-45.31613159-45.31695557-45.3161316H198.0211792c-25.89505005 0-45.31613159 21.57907104-45.31613159 45.3161316V700.13681031c0 25.89505005 21.57989502 45.31613159 45.31613159 45.31613159h668.95779419c25.89505005 0 45.31695557-21.57989502 45.31695557-45.31613159v-474.74450684z m-75.52798463-200.68725586H670.60769653V41.968139640000004c0 15.10592651-10.78994751 25.89505005-25.89505005 25.89505005H400.86642456c-15.10510254 0-25.89505005-10.78912354-25.89505005-25.89505004v-17.26309204H208.81112671c-17.26309204 0-30.21102906-12.94793701-30.21102905-30.21102905s12.94793701-30.21102906 30.21102905-30.21102906h627.95681762c17.26391602 0 30.21102906 12.94711304 30.21102906 30.21102906s-12.94711304 30.21102906-30.21102906 30.21102905z"  horiz-adv-x="1071" />

    
    <glyph glyph-name="variable-analysis" unicode="&#59951;" d="M1053.67963716 24.797776060000047H174.11082725V774.53861197a31.33638803 31.33638803 0 1 1-62.65249392 0v-781.07722394A31.2755408 31.2755408 0 0 1 142.79472136-37.875h910.8849158a31.33638803 31.33638803 0 0 1 0 62.67277607zM339.87930726 85.07722392999995a38.31355207 38.31355207 0 0 1 38.53665803 30.42367714V285.22445919999996c0 29.40955554-17.34149652 46.7713342-38.53665802 46.7713342s-38.53665884-17.36177866-38.53665885-46.7713342v-169.72355814a38.31355207 38.31355207 0 0 1 38.53665885-30.42367712zM500.39463108 424.01727776v-307.11688713a39.65219358 39.65219358 0 0 1 77.0733177 0V424.01727776c0 29.40955554-17.34149652 46.7713342-38.53665885 46.77133421s-38.53665884-17.36177866-38.53665884-46.77133421zM737.98327342 329.52133419999996c-21.21544446 0-38.53665884-17.36177866-38.53665884-46.7713342v-161.50916492a38.31355207 38.31355207 0 0 1 38.53665884-30.42367794 38.31355207 38.31355207 0 0 1 38.53665885 30.42367794v161.50916492c0 29.40955554-17.30093142 46.7713342-38.53665885 46.7713342zM936.54847743 442.33233161c-21.21544446 0-38.53665884-17.36177866-38.53665885-46.7713342v-278.68088891a38.31355207 38.31355207 0 0 1 38.53665886-30.42367796 38.31355207 38.31355207 0 0 1 38.53665884 30.42367795V395.56099741a40.56490366 40.56490366 0 0 1-38.53665884 46.7713342zM316.29081511 463.56805901a31.31610589 31.31610589 0 0 1 20.7286658-8.11298088 30.86989151 30.86989151 0 0 1 23.60877429 10.60772222l164.28786026 184.18494617 185.56415278-185.625a31.98542706 31.98542706 0 0 1 23.14227776-9.16766839 29.79492188 29.79492188 0 0 1 22.65549912 10.60772223l221.74804688 247.24308938a31.39723526 31.39723526 0 1 1-46.64963975 41.94411026l-199.6198915-222.74188715-186.0306493 185.625a30.16000608 30.16000608 0 0 1-23.14227776 9.1676684 31.49864758 31.49864758 0 0 1-22.65549829-10.60772224L313.89748609 507.92578125a31.33638803 31.33638803 0 0 1 2.39332902-44.35772224z"  horiz-adv-x="1181" />

    
    <glyph glyph-name="guzhang-red" unicode="&#60442;" d="M1114.854807-128H41.853738a42.046909 42.046909 0 0 0-36.0908 20.443941A40.920078 40.920078 0 0 0 5.376596-66.63598100000002L541.94152 874.912155a41.853738 41.853738 0 0 0 72.696724 0L1151.203169-66.63598100000002a41.30642 41.30642 0 0 0-0.257561-40.984468 42.336666 42.336666 0 0 0-36.090801-20.379551z m-602.790417 240.948752v-120.409986h132.386594v120.409986z m0 451.698421v-361.326542h132.386594V564.6471730000001z"  horiz-adv-x="1156" />

    
    <glyph glyph-name="guzhang-yellow" unicode="&#60443;" d="M1114.854807-128H41.853738a42.046909 42.046909 0 0 0-36.0908 20.443941A40.920078 40.920078 0 0 0 5.376596-66.63598100000002L541.94152 874.912155a41.853738 41.853738 0 0 0 72.696724 0L1151.203169-66.63598100000002a41.30642 41.30642 0 0 0-0.257561-40.984468 42.336666 42.336666 0 0 0-36.090801-20.379551z m-602.790417 240.948752v-120.409986h132.386594v120.409986z m0 451.698421v-361.326542h132.386594V564.6471730000001z"  horiz-adv-x="1156" />

    
    <glyph glyph-name="guzhang-green" unicode="&#60444;" d="M1114.854807-128H41.853738a42.046909 42.046909 0 0 0-36.0908 20.443941A40.920078 40.920078 0 0 0 5.376596-66.63598100000002L541.94152 874.912155a41.853738 41.853738 0 0 0 72.696724 0L1151.203169-66.63598100000002a41.30642 41.30642 0 0 0-0.257561-40.984468 42.336666 42.336666 0 0 0-36.090801-20.379551z m-602.790417 240.948752v-120.409986h132.386594v120.409986z m0 451.698421v-361.326542h132.386594V564.6471730000001z"  horiz-adv-x="1156" />

    
    <glyph glyph-name="guzhang-orange" unicode="&#60447;" d="M1114.854807-128H41.853738a42.046909 42.046909 0 0 0-36.0908 20.443941A40.920078 40.920078 0 0 0 5.376596-66.63598100000002L541.94152 874.912155a41.853738 41.853738 0 0 0 72.696724 0L1151.203169-66.63598100000002a41.30642 41.30642 0 0 0-0.257561-40.984468 42.336666 42.336666 0 0 0-36.090801-20.379551z m-602.790417 240.948752v-120.409986h132.386594v120.409986z m0 451.698421v-361.326542h132.386594V564.6471730000001z"  horiz-adv-x="1156" />

    
    <glyph glyph-name="double-biaochi" unicode="&#60448;" d="M362.90273394 395.67017188h658.21239409-658.21239409zM362.90273394-223.8313062300001h658.21239409-658.21239409zM362.90273394-185.08868493h658.21239409-658.21239409zM362.90273394-146.37776895000002h658.21239409-658.21239409zM362.90273394-107.61929612999995h658.21239409-658.21239409zM362.90273394-68.90838014999997h658.21239409-658.21239409zM362.90273394-30.19746416999999h658.21239409-658.21239409zM362.90273394 8.561008649999962h658.21239409-658.21239409zM362.90273394 47.271924629999944h658.21239409-658.21239409zM362.90273394 85.85602389999997h658.21239409-658.21239409zM362.90273394 124.56694101999994h658.21239409-658.21239409zM362.90273394 163.32541270000002h658.21239409-658.21239409zM362.90273394 202.03632982h658.21239409-658.21239409zM362.90273394 240.74724579999997h658.21239409-658.21239409zM362.90273394 279.48986596h658.21239409-658.21239409zM362.90273394 318.20078307999995h658.21239409-658.21239409zM362.90273394 356.95925476h658.21239409-658.21239409zM362.90273394-262.5422222100001h658.21239409-658.21239409zM362.90273394 395.67017188v-658.21239409 658.21239409zM982.40421205 395.67017188v-658.21239409 658.21239409zM943.64573923 395.67017188v-658.21239409 658.21239409zM904.93482325 395.67017188v-658.21239409 658.21239409zM866.19220195 395.67017188v-658.21239409 658.21239409zM827.48128597 395.67017188v-658.21239409 658.21239409zM788.77036999 395.67017188v-658.21239409 658.21239409zM750.01189717 395.67017188v-658.21239409 658.21239409zM711.30098119 395.67017188v-658.21239409 658.21239409zM672.71688192 395.67017188v-658.21239409 658.21239409zM634.0059648 395.67017188v-658.21239409 658.21239409zM595.24749198 395.67017188v-658.21239409 658.21239409zM556.536576 395.67017188v-658.21239409 658.21239409zM517.82566002 395.67017188v-658.21239409 658.21239409zM479.0671872 395.67017188v-658.21239409 658.21239409zM440.35627122 395.67017188v-658.21239409 658.21239409zM401.61365106 395.67017188v-658.21239409 658.21239409zM1021.11512803 395.67017188v-658.21239409 658.21239409zM659.21086123 62.14122838000003h121.33225016v-67.878846h-121.33225016zM659.21086123 423.83941747h121.33225016v-67.87884714h-121.33225016zM659.21086123 302.68154084h181.60207075v-67.878846H659.21086123zM659.21086123 182.98206209h121.33225016v-67.87884715h-121.33225016zM659.21086123-58.71545684h181.60207075v-67.87884601H659.21086123zM659.21086123 902.54222223h121.33225016v-67.87884715h-121.33225016zM659.21086123 783.44512399h121.33225016v-67.87884715h-121.33225016zM659.21086123 543.64986142h121.33225016v-67.87884602h-121.33225016zM659.21086123 664.34802575h181.60207075v-67.87884715H659.21086123zM2.88487197-126.59430284999996h594.16976384V902.54222223z m550.24349525 112.81965169h-2.21929927v-0.77675406H297.10051783v56.03730091h199.94299164V378.26452595h56.08485775z"  horiz-adv-x="1024" />

    
    <glyph glyph-name="single-biaochi" unicode="&#60449;" d="M362.90273394 395.67017188h658.21239409-658.21239409zM362.90273394-223.8313062300001h658.21239409-658.21239409zM362.90273394-185.08868493h658.21239409-658.21239409zM362.90273394-146.37776895000002h658.21239409-658.21239409zM362.90273394-107.61929612999995h658.21239409-658.21239409zM362.90273394-68.90838014999997h658.21239409-658.21239409zM362.90273394-30.19746416999999h658.21239409-658.21239409zM362.90273394 8.561008649999962h658.21239409-658.21239409zM362.90273394 47.271924629999944h658.21239409-658.21239409zM362.90273394 85.85602389999997h658.21239409-658.21239409zM362.90273394 124.56694101999994h658.21239409-658.21239409zM362.90273394 163.32541270000002h658.21239409-658.21239409zM362.90273394 202.03632982h658.21239409-658.21239409zM362.90273394 240.74724579999997h658.21239409-658.21239409zM362.90273394 279.48986596h658.21239409-658.21239409zM362.90273394 318.20078307999995h658.21239409-658.21239409zM362.90273394 356.95925476h658.21239409-658.21239409zM362.90273394-262.5422222100001h658.21239409-658.21239409zM362.90273394 395.67017188v-658.21239409 658.21239409zM982.40421205 395.67017188v-658.21239409 658.21239409zM943.64573923 395.67017188v-658.21239409 658.21239409zM904.93482325 395.67017188v-658.21239409 658.21239409zM866.19220195 395.67017188v-658.21239409 658.21239409zM827.48128597 395.67017188v-658.21239409 658.21239409zM788.77036999 395.67017188v-658.21239409 658.21239409zM750.01189717 395.67017188v-658.21239409 658.21239409zM711.30098119 395.67017188v-658.21239409 658.21239409zM672.71688192 395.67017188v-658.21239409 658.21239409zM634.0059648 395.67017188v-658.21239409 658.21239409zM595.24749198 395.67017188v-658.21239409 658.21239409zM556.536576 395.67017188v-658.21239409 658.21239409zM517.82566002 395.67017188v-658.21239409 658.21239409zM479.0671872 395.67017188v-658.21239409 658.21239409zM440.35627122 395.67017188v-658.21239409 658.21239409zM401.61365106 395.67017188v-658.21239409 658.21239409zM1021.11512803 395.67017188v-658.21239409 658.21239409zM659.21086123 62.14122838000003h121.33225016v-67.878846h-121.33225016zM659.21086123 423.83941747h121.33225016v-67.87884715h-121.33225016zM659.21086123 302.68154084h181.60207075v-67.878846H659.21086123zM659.21086123 182.98206209h121.33225016v-67.87884715h-121.33225016zM659.21086123-58.71545684h181.60207075v-67.87884601H659.21086123zM659.21086123 902.54222223h121.33225016v-67.87884715h-121.33225016zM659.21086123 783.44512399h121.33225016v-67.87884715h-121.33225016zM659.21086123 543.64986142h121.33225016v-67.87884602h-121.33225016zM659.21086123 664.34802575h181.60207075v-67.87884715H659.21086123zM2.88487197-126.59430284999996h594.16976384V902.54222223z m550.24349525 112.81965169h-2.21929927v-0.77675406H297.10051783v56.03730091h199.94299164V378.26452595h56.08485775z"  horiz-adv-x="1024" />

    
    <glyph glyph-name="line-chart_depart" unicode="&#60450;" d="M984.22-60.440000000000055H67.56V856.22a27.78 27.78 0 0 1-55.56 0v-944.44A27.76 27.76 0 0 1 39.78-116h944.44a27.78 27.78 0 0 1 0 55.56zM150.89 175.66999999999996a27.69 27.69 0 0 1 19.64 8.14L421.72 435l160.92-160.92a27.77 27.77 0 0 1 39.28 0l270.83 270.84a27.77 27.77 0 0 1-39.28 39.28L602.28 333 441.36 493.92a27.77 27.77 0 0 1-39.28 0L131.25 223.08000000000004a27.78 27.78 0 0 1 19.64-47.42z"  horiz-adv-x="1024" />

    
    <glyph glyph-name="double_chigui" unicode="&#60451;" d="M635.06204445 884.74358518c-5.46133333 0-10.92266667-2.66998518-14.19946667-8.4954074l-566.76503703-968.47644445c-6.79632592-11.77220741 1.21362963-26.94257778 14.32082962-26.94257778h566.76503704c9.34494815 0 16.86945185 8.00995555 16.86945184 17.7189926V867.02459259c0.24272592 11.04402963-8.25268148 17.71899259-16.9908148 17.71899259z m-42.35567408-941.65522963H150.5810963l442.12527407 755.60580742v-755.60580742zM535.54441482 488.73623703c-2.54862222 0-5.09724445-1.21362963-6.67496297-4.00497778L261.62820741 28.042429630000015c-3.2768-5.5826963 0.60681482-12.74311111 6.79632592-12.74311111h267.24124445c4.36906667 0 8.00995555 3.76225185 8.00995555 8.37404445V480.36219259c-0.12136297 5.21860741-4.12634075 8.37404445-8.13131851 8.37404444z m-20.0248889-444.06708148H307.01795555L515.51952592 400.99081482v-356.32165927zM731.57214805-117.10767408000004L942.7437036-117.10767408000004c9.34494815 0 16.86945185 7.5245037 16.86945185 16.86945186l0 970.17552592c0 9.34494815-7.5245037 16.86945185-16.86945185 16.86945185l-211.17155555 0c-9.34494815 0-16.86945185-7.5245037-16.86945185-16.86945185L714.7026962-100.11685924999995c-0.24272592-9.22358518 7.40314075-16.99081482 16.86945185-16.99081483zM907.91253323 828.18844445L907.91253323-62.49434074999999l-142.11602963 0 0 4.9758815c1.45635555-0.48545185 3.15543703-0.72817778 4.73315555-0.72817778l27.54939261 0c4.61179258 0 8.8594963 1.82044445 11.89357036 4.85451851 3.03407408 3.03407408 4.85451852 7.28177778 4.85451852 11.89357037 0 9.22358518-7.52450371 16.74808889-16.74808889 16.74808891l-27.5493926-1e-8c-1.69908149 0-3.2768-0.24272591-4.73315555-0.72817778l0 54.3706074c1.45635555-0.48545185 3.15543703-0.72817778 4.73315555-0.72817778l27.5493926-1e-8c4.61179258 0 8.8594963 1.82044445 11.89357037 4.85451853 3.03407408 3.03407408 4.85451852 7.16041482 4.85451852 11.89357037 0 9.22358518-7.52450371 16.74808889-16.74808888 16.74808889l-27.54939261 0c-1.69908149 0-3.2768-0.24272591-4.73315555-0.72817778l0 57.64740741c1.45635555-0.48545185 3.15543703-0.72817778 4.73315556-0.72817778l59.46785185 0c4.61179258 0 8.8594963 1.82044445 11.89357037 4.85451853 3.03407408 3.03407408 4.85451852 7.28177778 4.85451852 11.89357036 0 9.22358518-7.52450371 16.74808889-16.74808889 16.74808889l-59.46785186 0c-1.69908149 0-3.2768-0.24272591-4.73315555-0.72817778l0 55.82696296c1.45635555-0.48545185 3.15543703-0.72817778 4.73315556-0.72817777l27.54939259 0c4.61179258 0 8.8594963 1.82044445 11.89357037 4.85451851 3.03407408 3.03407408 4.85451852 7.28177778 4.85451852 11.89357038 0 9.22358518-7.52450371 16.74808889-16.74808888 16.74808888l-27.54939261 0c-1.69908149 0-3.2768-0.24272591-4.73315555-0.72817776L765.7965036 289.33688888999995c1.45635555-0.48545185 3.15543703-0.72817778 4.73315555-0.72817778l27.54939261 0c4.61179258 0 8.8594963 1.82044445 11.89357036 4.85451852 3.03407408 3.03407408 4.85451852 7.16041482 4.85451852 11.89357037 0 9.22358518-7.52450371 16.74808889-16.74808889 16.74808889l-27.5493926 0c-1.69908149 0-3.2768-0.24272591-4.73315555-0.72817778l0 52.55016297c1.45635555-0.48545185 3.15543703-0.72817778 4.73315555-0.72817778l59.46785186 0c4.61179258 0 8.8594963 1.82044445 11.89357037 4.85451852 3.03407408 3.03407408 4.85451852 7.28177778 4.85451852 11.89357036 0 9.22358518-7.52450371 16.74808889-16.7480889 16.7480889l-59.46785185 0c-1.69908149 0-3.2768-0.24272591-4.73315555-0.72817778L765.7965036 455.60414815c1.45635555-0.48545185 3.15543703-0.72817778 4.73315555-0.72817778l27.5493926 0c4.61179258 0 8.8594963 1.82044445 11.89357037 4.85451852 3.03407408 3.03407408 4.85451852 7.16041482 4.85451852 11.89357036 0 9.22358518-7.52450371 16.74808889-16.74808889 16.7480889l-27.54939259 0c-1.69908149 0-3.2768-0.24272591-4.73315556-0.72817778l0 55.94832592c1.45635555-0.48545185 3.15543703-0.72817778 4.73315555-0.72817777l27.5493926 0c4.61179258 0 8.8594963 1.82044445 11.89357037 4.85451851s4.85451852 7.28177778 4.85451852 11.89357038c0 9.22358518-7.52450371 16.74808889-16.74808889 16.74808889l-27.54939259 0c-1.69908149 0-3.2768-0.24272591-4.73315556-0.72817779l0 54.12788149c1.45635555-0.48545185 3.15543703-0.72817778 4.73315555-0.72817778l59.46785186 0c4.61179258 0 8.8594963 1.82044445 11.89357037 4.85451854 3.03407408 3.03407408 4.85451852 7.16041482 4.85451852 11.89357034 0 9.22358518-7.52450371 16.74808889-16.7480889 16.7480889l-59.46785185 0c-1.69908149 0-3.2768-0.24272591-4.73315555-0.72817778l0 55.82696296c1.45635555-0.48545185 3.15543703-0.72817778 4.73315555-0.72817777l27.5493926 0c4.61179258 0 8.8594963 1.82044445 11.89357037 4.85451851 3.03407408 3.03407408 4.85451852 7.16041482 4.85451852 11.89357038 0 9.22358518-7.52450371 16.74808889-16.74808889 16.74808888l-27.5493926 0c-1.69908149 0-3.2768-0.24272591-4.73315555-0.72817777L765.7965036 803.91585186c1.45635555-0.48545185 3.15543703-0.72817778 4.73315555-0.72817778l27.5493926 0c4.61179258 0 8.8594963 1.82044445 11.89357037 4.85451851s4.85451852 7.28177778 4.85451852 11.89357038c0 2.79134816-0.72817779 5.33997037-1.82044444 7.64586667l94.90583703-1e-8z"  horiz-adv-x="1024" />

    
    <glyph glyph-name="single_chigui-copy" unicode="&#60452;" d="M635.06204445 884.74358518c-5.46133333 0-10.92266667-2.66998518-14.19946667-8.4954074l-566.76503703-968.47644445c-6.79632592-11.77220741 1.21362963-26.94257778 14.32082962-26.94257778h566.76503704c9.34494815 0 16.86945185 8.00995555 16.86945184 17.7189926V867.02459259c0.24272592 11.04402963-8.25268148 17.71899259-16.9908148 17.71899259z m-42.35567408-941.65522963H150.5810963l442.12527407 755.60580742v-755.60580742zM535.54441482 488.73623703c-2.54862222 0-5.09724445-1.21362963-6.67496297-4.00497778L261.62820741 28.042429630000015c-3.2768-5.5826963 0.60681482-12.74311111 6.79632592-12.74311111h267.24124445c4.36906667 0 8.00995555 3.76225185 8.00995555 8.37404445V480.36219259c-0.12136297 5.21860741-4.12634075 8.37404445-8.13131851 8.37404444z m-20.0248889-444.06708148H307.01795555L515.51952592 400.99081482v-356.32165927zM731.57214805-117.10767408000004L942.7437036-117.10767408000004c9.34494815 0 16.86945185 7.5245037 16.86945185 16.86945186l0 970.17552592c0 9.34494815-7.5245037 16.86945185-16.86945185 16.86945185l-211.17155555 0c-9.34494815 0-16.86945185-7.5245037-16.86945185-16.86945185L714.7026962-100.11685924999995c-0.24272592-9.22358518 7.40314075-16.99081482 16.86945185-16.99081483zM907.91253323 828.18844445L907.91253323-62.49434074999999l-142.11602963 0 0 4.9758815c1.45635555-0.48545185 3.15543703-0.72817778 4.73315555-0.72817778l27.54939261 0c4.61179258 0 8.8594963 1.82044445 11.89357036 4.85451851 3.03407408 3.03407408 4.85451852 7.28177778 4.85451852 11.89357037 0 9.22358518-7.52450371 16.74808889-16.74808889 16.74808891l-27.5493926-1e-8c-1.69908149 0-3.2768-0.24272591-4.73315555-0.72817778l0 54.3706074c1.45635555-0.48545185 3.15543703-0.72817778 4.73315555-0.72817778l27.5493926-1e-8c4.61179258 0 8.8594963 1.82044445 11.89357037 4.85451853 3.03407408 3.03407408 4.85451852 7.16041482 4.85451852 11.89357037 0 9.22358518-7.52450371 16.74808889-16.74808888 16.74808889l-27.54939261 0c-1.69908149 0-3.2768-0.24272591-4.73315555-0.72817778l0 57.64740741c1.45635555-0.48545185 3.15543703-0.72817778 4.73315556-0.72817778l59.46785185 0c4.61179258 0 8.8594963 1.82044445 11.89357037 4.85451853 3.03407408 3.03407408 4.85451852 7.28177778 4.85451852 11.89357036 0 9.22358518-7.52450371 16.74808889-16.74808889 16.74808889l-59.46785186 0c-1.69908149 0-3.2768-0.24272591-4.73315555-0.72817778l0 55.82696296c1.45635555-0.48545185 3.15543703-0.72817778 4.73315556-0.72817777l27.54939259 0c4.61179258 0 8.8594963 1.82044445 11.89357037 4.85451851 3.03407408 3.03407408 4.85451852 7.28177778 4.85451852 11.89357038 0 9.22358518-7.52450371 16.74808889-16.74808888 16.74808888l-27.54939261 0c-1.69908149 0-3.2768-0.24272591-4.73315555-0.72817776L765.7965036 289.33688888999995c1.45635555-0.48545185 3.15543703-0.72817778 4.73315555-0.72817778l27.54939261 0c4.61179258 0 8.8594963 1.82044445 11.89357036 4.85451852 3.03407408 3.03407408 4.85451852 7.16041482 4.85451852 11.89357037 0 9.22358518-7.52450371 16.74808889-16.74808889 16.74808889l-27.5493926 0c-1.69908149 0-3.2768-0.24272591-4.73315555-0.72817778l0 52.55016297c1.45635555-0.48545185 3.15543703-0.72817778 4.73315555-0.72817778l59.46785186 0c4.61179258 0 8.8594963 1.82044445 11.89357037 4.85451852 3.03407408 3.03407408 4.85451852 7.28177778 4.85451852 11.89357036 0 9.22358518-7.52450371 16.74808889-16.7480889 16.7480889l-59.46785185 0c-1.69908149 0-3.2768-0.24272591-4.73315555-0.72817778L765.7965036 455.60414815c1.45635555-0.48545185 3.15543703-0.72817778 4.73315555-0.72817778l27.5493926 0c4.61179258 0 8.8594963 1.82044445 11.89357037 4.85451852 3.03407408 3.03407408 4.85451852 7.16041482 4.85451852 11.89357036 0 9.22358518-7.52450371 16.74808889-16.74808889 16.7480889l-27.54939259 0c-1.69908149 0-3.2768-0.24272591-4.73315556-0.72817778l0 55.94832592c1.45635555-0.48545185 3.15543703-0.72817778 4.73315555-0.72817777l27.5493926 0c4.61179258 0 8.8594963 1.82044445 11.89357037 4.85451851s4.85451852 7.28177778 4.85451852 11.89357038c0 9.22358518-7.52450371 16.74808889-16.74808889 16.74808889l-27.54939259 0c-1.69908149 0-3.2768-0.24272591-4.73315556-0.72817779l0 54.12788149c1.45635555-0.48545185 3.15543703-0.72817778 4.73315555-0.72817778l59.46785186 0c4.61179258 0 8.8594963 1.82044445 11.89357037 4.85451854 3.03407408 3.03407408 4.85451852 7.16041482 4.85451852 11.89357034 0 9.22358518-7.52450371 16.74808889-16.7480889 16.7480889l-59.46785185 0c-1.69908149 0-3.2768-0.24272591-4.73315555-0.72817778l0 55.82696296c1.45635555-0.48545185 3.15543703-0.72817778 4.73315555-0.72817777l27.5493926 0c4.61179258 0 8.8594963 1.82044445 11.89357037 4.85451851 3.03407408 3.03407408 4.85451852 7.16041482 4.85451852 11.89357038 0 9.22358518-7.52450371 16.74808889-16.74808889 16.74808888l-27.5493926 0c-1.69908149 0-3.2768-0.24272591-4.73315555-0.72817777L765.7965036 803.91585186c1.45635555-0.48545185 3.15543703-0.72817778 4.73315555-0.72817778l27.5493926 0c4.61179258 0 8.8594963 1.82044445 11.89357037 4.85451851s4.85451852 7.28177778 4.85451852 11.89357038c0 2.79134816-0.72817779 5.33997037-1.82044444 7.64586667l94.90583703-1e-8z"  horiz-adv-x="1024" />

    
    </font>
</defs>
</svg>
